<svg width="23" height="12" viewBox="0 0 23 12" fill="none" xmlns="http://www.w3.org/2000/svg">
<path d="M22.7851 4.36842C22.7851 5.11404 22.6329 5.81579 22.3285 6.47368C22.0331 7.12281 21.5899 7.64912 20.9991 8.05263L23 12H19.6025L17.9104 8.73684H15.2112V12H11.9077V0H18.5819C19.2712 0 19.8755 0.122807 20.3948 0.368421C20.923 0.605263 21.3616 0.925439 21.7108 1.32895C22.0689 1.73246 22.3375 2.19737 22.5165 2.72368C22.6956 3.25 22.7851 3.79825 22.7851 4.36842ZM17.803 6.07895C18.3133 6.07895 18.7206 5.92544 19.025 5.61842C19.3294 5.30263 19.4816 4.88597 19.4816 4.36842C19.4816 3.85088 19.3294 3.4386 19.025 3.13158C18.7206 2.81579 18.3133 2.65789 17.803 2.65789H15.2112V6.07895H17.803Z" fill="white"/>
<path d="M3.3035 8.5C3.3035 8.73684 3.37512 8.92982 3.51836 9.07895C3.67056 9.2193 3.86751 9.28947 4.10923 9.28947H10.2194V12H2.95435C2.50672 12 2.09938 11.9298 1.73232 11.7895C1.37422 11.6491 1.06536 11.4518 0.805732 11.1974C0.55506 10.9518 0.358103 10.6491 0.214862 10.2895C0.0716206 9.9386 0 9.54386 0 9.10526V0H10.2194V2.71053H3.3035V4.53947H10.0851V7.19737H3.3035V8.5Z" fill="white"/>
</svg>
