<svg width="180" height="53" viewBox="0 0 180 53" fill="none" xmlns="http://www.w3.org/2000/svg">
<path d="M125.98 11.9363C125.742 11.9363 125.534 11.8512 125.358 11.681C125.192 11.5108 125.109 11.298 125.109 11.0427C125.109 10.7874 125.192 10.5799 125.358 10.4204C125.524 10.2501 125.731 10.165 125.98 10.165C126.229 10.165 126.436 10.2501 126.602 10.4204C126.768 10.5799 126.851 10.7874 126.851 11.0427C126.851 11.298 126.763 11.5108 126.587 11.681C126.421 11.8512 126.219 11.9363 125.98 11.9363Z" fill="#505300"/>
<path d="M123.042 11.8403H121.968V10.0372C121.668 10.6329 121.253 11.0957 120.724 11.4254C120.205 11.7552 119.614 11.9201 118.95 11.9201C118.225 11.9201 117.571 11.7393 116.99 11.3776C116.41 11.0159 115.948 10.5106 115.606 9.86163C115.274 9.2127 115.108 8.46802 115.108 7.6276C115.108 6.79782 115.274 6.05847 115.606 5.40954C115.948 4.7606 116.41 4.26061 116.99 3.90955C117.571 3.54785 118.225 3.367 118.95 3.367C119.604 3.367 120.19 3.52657 120.708 3.84572C121.237 4.16486 121.647 4.61167 121.937 5.18613V0H123.042V11.8403ZM119.09 10.8669C119.63 10.8669 120.117 10.734 120.553 10.468C120.988 10.2021 121.33 9.8244 121.579 9.33504C121.828 8.83504 121.953 8.2659 121.953 7.6276C121.953 6.99995 121.828 6.44144 121.579 5.95208C121.33 5.46273 120.988 5.08507 120.553 4.81911C120.117 4.54252 119.63 4.40422 119.09 4.40422C118.551 4.40422 118.064 4.54252 117.628 4.81911C117.193 5.08507 116.85 5.46273 116.602 5.95208C116.353 6.44144 116.228 6.99995 116.228 7.6276C116.228 8.2659 116.353 8.83504 116.602 9.33504C116.85 9.8244 117.193 10.2021 117.628 10.468C118.064 10.734 118.551 10.8669 119.09 10.8669Z" fill="#505300"/>
<path d="M111.311 5.1066C111.56 4.53213 111.933 4.09597 112.431 3.7981C112.929 3.50023 113.525 3.35661 114.22 3.36725V4.51618C114.158 4.50554 114.064 4.50022 113.94 4.50022C113.131 4.50022 112.498 4.76618 112.042 5.29809C111.586 5.83 111.358 6.57999 111.358 7.54807V11.8406H110.238V3.44704H111.311V5.1066Z" fill="#505300"/>
<path d="M104.585 3.36719C105.611 3.36719 106.394 3.64378 106.934 4.19697C107.483 4.73952 107.758 5.55334 107.758 6.63844V11.8405H106.7V10.4044C106.462 10.8831 106.109 11.2554 105.642 11.5214C105.186 11.7873 104.642 11.9203 104.009 11.9203C103.128 11.9203 102.433 11.6969 101.925 11.2501C101.417 10.8033 101.162 10.2129 101.162 9.47885C101.162 8.76608 101.406 8.19162 101.894 7.75545C102.381 7.31929 103.143 7.1012 104.18 7.1012H106.638C106.638 6.78206 106.617 6.51078 106.576 6.28738C106.482 5.01079 105.777 4.3725 104.46 4.3725C103.962 4.3725 103.485 4.46292 103.029 4.64377C102.573 4.82462 102.189 5.0693 101.878 5.37781L101.396 4.53207C101.8 4.15974 102.282 3.8725 102.842 3.67038C103.402 3.46825 103.983 3.36719 104.585 3.36719ZM104.211 11.0107C105.414 11.0107 106.223 10.4469 106.638 9.31927V7.91503H104.258C102.931 7.91503 102.267 8.42034 102.267 9.43097C102.267 9.92033 102.438 10.3086 102.78 10.5959C103.122 10.8725 103.6 11.0107 104.211 11.0107Z" fill="#505300"/>
<path d="M97.6645 11.8408H96.6223L94.2268 5.05896L91.7845 11.8408H90.7579L87.8179 3.44727H88.8756L91.2868 10.4525L93.7601 3.44727H94.709L97.1512 10.4525L99.5934 3.44727H100.605L97.6645 11.8408Z" fill="#505300"/>
<path d="M87.3713 7.94694H80.8846C80.9365 8.82991 81.2372 9.54267 81.7869 10.0852C82.3469 10.6171 83.0521 10.8831 83.9024 10.8831C84.3898 10.8831 84.8358 10.7927 85.2402 10.6118C85.655 10.431 85.9972 10.1597 86.2669 9.79799L86.9046 10.532C86.5417 10.9895 86.1009 11.3352 85.5824 11.5693C85.0639 11.8033 84.4987 11.9203 83.8869 11.9203C83.0884 11.9203 82.3728 11.7395 81.7402 11.3778C81.118 11.0054 80.6306 10.4948 80.278 9.84586C79.9358 9.19693 79.7646 8.45758 79.7646 7.62779C79.7646 6.80865 79.9306 6.07993 80.2624 5.44164C80.5943 4.79271 81.0506 4.28739 81.6313 3.92569C82.2224 3.55336 82.8758 3.36719 83.5913 3.36719C84.3069 3.36719 84.9498 3.54804 85.5202 3.90974C86.1009 4.2608 86.5572 4.75548 86.8891 5.39377C87.2209 6.03206 87.3869 6.7661 87.3869 7.59588L87.3713 7.94694ZM83.6069 4.34059C82.8602 4.34059 82.2328 4.60122 81.7246 5.12249C81.2269 5.63313 80.9469 6.30334 80.8846 7.13312H86.3291C86.2565 6.31397 85.9661 5.64377 85.458 5.12249C84.9602 4.60122 84.3432 4.34059 83.6069 4.34059Z" fill="#505300"/>
<path d="M75.4752 8.2499C75.2574 8.29245 74.993 8.31373 74.6819 8.31373H71.9441V11.8403H70.793V0.670166H74.6819C76.0093 0.670166 77.0515 1.01059 77.8085 1.69143C78.5656 2.36164 78.9441 3.29249 78.9441 4.48397C78.9441 5.3563 78.7367 6.09566 78.3219 6.70204C77.9174 7.30841 77.3367 7.74458 76.5796 8.01054L79.1308 11.8403H77.8396L75.4752 8.2499ZM74.6507 7.26054C75.667 7.26054 76.4396 7.02118 76.9685 6.54246C77.5078 6.0531 77.7774 5.36694 77.7774 4.48397C77.7774 3.61163 77.5078 2.93611 76.9685 2.45739C76.4396 1.97867 75.667 1.73931 74.6507 1.73931H71.9441V7.26054H74.6507Z" fill="#505300"/>
<path d="M64.9078 10.165C65.1567 10.165 65.3641 10.2501 65.53 10.4204C65.6959 10.5906 65.7789 10.798 65.7789 11.0427C65.7789 11.1704 65.7582 11.3086 65.7167 11.4576C65.6856 11.6065 65.6389 11.7767 65.5767 11.9682L64.9078 14.1863H64.0834L64.6278 11.8725C64.4515 11.8193 64.3115 11.7182 64.2078 11.5693C64.1041 11.4203 64.0522 11.2448 64.0522 11.0427C64.0522 10.7874 64.1352 10.5799 64.3011 10.4204C64.4671 10.2501 64.6693 10.165 64.9078 10.165Z" fill="#505300"/>
<path d="M60.1611 12.8302C59.85 13.6174 59.4818 14.1759 59.0566 14.5057C58.6314 14.8355 58.1285 15.0004 57.5477 15.0004C57.164 15.0004 56.8063 14.9365 56.4744 14.8089C56.1425 14.6812 55.8625 14.4897 55.6344 14.2344L56.1322 13.3408C56.5159 13.7663 56.9774 13.9791 57.5166 13.9791C57.8485 13.9791 58.1181 13.894 58.3255 13.7238C58.5433 13.5642 58.73 13.3408 58.8855 13.0536C59.0411 12.777 59.2329 12.3674 59.4611 11.8249L55.9766 3.44727H57.1433L60.0366 10.4685L62.93 3.44727H64.0344L60.1611 12.8302Z" fill="#505300"/>
<path d="M52.0847 3.36719C53.1114 3.36719 53.8943 3.64378 54.4336 4.19697C54.9832 4.73952 55.258 5.55334 55.258 6.63844V11.8405H54.2003V10.4044C53.9617 10.8831 53.6091 11.2554 53.1425 11.5214C52.6862 11.7873 52.1417 11.9203 51.5091 11.9203C50.6277 11.9203 49.9328 11.6969 49.4247 11.2501C48.9165 10.8033 48.6625 10.2129 48.6625 9.47885C48.6625 8.76608 48.9062 8.19162 49.3936 7.75545C49.881 7.31929 50.6432 7.1012 51.6803 7.1012H54.138C54.138 6.78206 54.1173 6.51078 54.0758 6.28738C53.9825 5.01079 53.2773 4.3725 51.9603 4.3725C51.4625 4.3725 50.9854 4.46292 50.5291 4.64377C50.0728 4.82462 49.6891 5.0693 49.378 5.37781L48.8958 4.53207C49.3003 4.15974 49.7825 3.8725 50.3425 3.67038C50.9025 3.46825 51.4832 3.36719 52.0847 3.36719ZM51.7114 11.0107C52.9143 11.0107 53.7232 10.4469 54.138 9.31927V7.91503H51.758C50.4306 7.91503 49.7669 8.42034 49.7669 9.43097C49.7669 9.92033 49.938 10.3086 50.2803 10.5959C50.6225 10.8725 51.0995 11.0107 51.7114 11.0107Z" fill="#505300"/>
<path d="M46.7662 11.8403H45.6929V10.0372C45.3921 10.6329 44.9773 11.0957 44.4484 11.4254C43.9299 11.7552 43.3388 11.9201 42.6751 11.9201C41.9492 11.9201 41.2959 11.7393 40.7151 11.3776C40.1344 11.0159 39.6729 10.5106 39.3307 9.86163C38.9988 9.2127 38.8329 8.46802 38.8329 7.6276C38.8329 6.79782 38.9988 6.05847 39.3307 5.40954C39.6729 4.7606 40.1344 4.26061 40.7151 3.90955C41.2959 3.54785 41.9492 3.367 42.6751 3.367C43.3284 3.367 43.9144 3.52657 44.4329 3.84572C44.9618 4.16486 45.3714 4.61167 45.6618 5.18613V0H46.7662V11.8403ZM42.8151 10.8669C43.3544 10.8669 43.8418 10.734 44.2773 10.468C44.7129 10.2021 45.0551 9.8244 45.304 9.33504C45.5529 8.83504 45.6773 8.2659 45.6773 7.6276C45.6773 6.99995 45.5529 6.44144 45.304 5.95208C45.0551 5.46273 44.7129 5.08507 44.2773 4.81911C43.8418 4.54252 43.3544 4.40422 42.8151 4.40422C42.2759 4.40422 41.7884 4.54252 41.3529 4.81911C40.9173 5.08507 40.5751 5.46273 40.3262 5.95208C40.0773 6.44144 39.9529 6.99995 39.9529 7.6276C39.9529 8.2659 40.0773 8.83504 40.3262 9.33504C40.5751 9.8244 40.9173 10.2021 41.3529 10.468C41.7884 10.734 42.2759 10.8669 42.8151 10.8669Z" fill="#505300"/>
<path d="M34.6083 12.8302C34.2972 13.6174 33.9291 14.1759 33.5039 14.5057C33.0787 14.8355 32.5757 15.0004 31.995 15.0004C31.6113 15.0004 31.2535 14.9365 30.9217 14.8089C30.5898 14.6812 30.3098 14.4897 30.0817 14.2344L30.5794 13.3408C30.9631 13.7663 31.4246 13.9791 31.9639 13.9791C32.2957 13.9791 32.5654 13.894 32.7728 13.7238C32.9906 13.5642 33.1772 13.3408 33.3328 13.0536C33.4883 12.777 33.6802 12.3674 33.9083 11.8249L30.4239 3.44727H31.5906L34.4839 10.4685L37.3772 3.44727H38.4817L34.6083 12.8302Z" fill="#505300"/>
<path d="M26.6821 5.1066C26.931 4.53213 27.3043 4.09597 27.8021 3.7981C28.2999 3.50023 28.8962 3.35661 29.591 3.36725V4.51618C29.5288 4.50554 29.4354 4.50022 29.311 4.50022C28.5021 4.50022 27.8695 4.76618 27.4132 5.29809C26.9569 5.83 26.7288 6.57999 26.7288 7.54807V11.8406H25.6088V3.44704H26.6821V5.1066Z" fill="#505300"/>
<path d="M23.8244 7.94694H17.3378C17.3896 8.82991 17.6904 9.54267 18.24 10.0852C18.8 10.6171 19.5052 10.8831 20.3556 10.8831C20.843 10.8831 21.2889 10.7927 21.6933 10.6118C22.1081 10.431 22.4504 10.1597 22.72 9.79799L23.3578 10.532C22.9948 10.9895 22.5541 11.3352 22.0356 11.5693C21.517 11.8033 20.9518 11.9203 20.34 11.9203C19.5415 11.9203 18.8259 11.7395 18.1933 11.3778C17.5711 11.0054 17.0837 10.4948 16.7311 9.84586C16.3889 9.19693 16.2178 8.45758 16.2178 7.62779C16.2178 6.80865 16.3837 6.07993 16.7156 5.44164C17.0474 4.79271 17.5037 4.28739 18.0844 3.92569C18.6756 3.55336 19.3289 3.36719 20.0444 3.36719C20.76 3.36719 21.403 3.54804 21.9733 3.90974C22.5541 4.2608 23.0104 4.75548 23.3422 5.39377C23.6741 6.03206 23.84 6.7661 23.84 7.59588L23.8244 7.94694ZM20.06 4.34059C19.3133 4.34059 18.6859 4.60122 18.1778 5.12249C17.68 5.63313 17.4 6.30334 17.3378 7.13312H22.7822C22.7096 6.31397 22.4193 5.64377 21.9111 5.12249C21.4133 4.60122 20.7963 4.34059 20.06 4.34059Z" fill="#505300"/>
<path d="M12.4131 11.8408H11.2931L7.82422 3.44727H8.99089L11.8842 10.4844L14.7776 3.44727H15.882L12.4131 11.8408Z" fill="#505300"/>
<path d="M7.34222 11.8403H0V0.670166H7.14V1.72335H1.15111V5.64885H6.48667V6.68608H1.15111V10.7712H7.34222V11.8403Z" fill="#505300"/>
<path d="M7.81543 20.0005C9.11185 20.0005 10.2435 20.1893 11.21 20.5669C12.2 20.9446 13.0255 21.4877 13.6855 22.1958C14.3455 22.8802 14.8283 23.7183 15.1348 24.7095C15.4648 25.6773 15.6299 26.7634 15.6299 27.9673V32.2515H17.0801V20.355H24.1523V52.647H17.0801V38.979H15.6299V45.0337C15.6299 46.2376 15.4648 47.3237 15.1348 48.2915C14.8283 49.2827 14.3454 50.1207 13.6855 50.8052C13.0255 51.5133 12.2 52.0564 11.21 52.4341C10.2435 52.8117 9.11185 53.0004 7.81543 53.0005C6.49525 53.0005 5.35133 52.8118 4.38477 52.4341C3.41831 52.0564 2.60536 51.5133 1.94531 50.8052C1.28526 50.1207 0.790006 49.2828 0.459961 48.2915C0.153491 47.3237 0 46.2376 0 45.0337V27.9673C0 26.7634 0.153491 25.6773 0.459961 24.7095C0.790006 23.7182 1.28529 22.8803 1.94531 22.1958C2.60536 21.4877 3.41832 20.9445 4.38477 20.5669C5.35133 20.1892 6.49525 20.0005 7.81543 20.0005ZM32.5332 52.647H25.4609V20.355H32.5332V52.647ZM69.665 52.646H36.4248V45.5649H69.665V52.646ZM86.8525 20.355C87.9841 20.355 89.0219 20.5909 89.9648 21.063C90.9077 21.5115 91.7091 22.1606 92.3691 23.0103C93.0292 23.86 93.536 24.8866 93.8896 26.0903C94.2668 27.2706 94.4551 28.5927 94.4551 30.0562C94.4551 31.5196 94.2668 32.8533 93.8896 34.0571C93.5361 35.2373 93.0292 36.2523 92.3691 37.1021C91.7091 37.9518 90.9078 38.6133 89.9648 39.0854C89.0219 39.5339 87.9841 39.7583 86.8525 39.7583H84.5186C83.5521 39.7584 82.7739 40.0414 82.1846 40.6079C81.619 41.1744 81.336 41.918 81.3359 42.8384C81.3359 43.7588 81.619 44.5024 82.1846 45.0688C82.7739 45.6353 83.5521 45.9194 84.5186 45.9194H97.6025V20.355H105.736V52.646H81.8311C80.5346 52.646 79.3557 52.4101 78.2949 51.938C77.2342 51.4895 76.3266 50.8404 75.5723 49.9907C74.8179 49.141 74.228 48.126 73.8037 46.9458C73.403 45.742 73.2031 44.4083 73.2031 42.9448C73.2031 41.4813 73.403 40.1592 73.8037 38.979C74.228 37.7752 74.818 36.7487 75.5723 35.8989C76.3267 35.0491 77.2341 34.3992 78.2949 33.9507C79.3557 33.4786 80.5346 33.2427 81.8311 33.2427H83.1396C84.1062 33.2427 84.8727 32.9836 85.4385 32.4644C86.0278 31.9215 86.3222 31.2012 86.3223 30.3042C86.3223 29.3129 86.0277 28.5338 85.4385 27.9673C84.8727 27.3772 84.1062 27.0815 83.1396 27.0815H73.9102V20.355H86.8525ZM132.33 44.5024H124.656V52.646H116.523V44.5024H110.335V37.7749H132.33V44.5024ZM142.515 52.646H126.778V46.2729H134.381V20.355H142.515V52.646ZM180 52.646H146.76V45.5649H180V52.646ZM7.81543 26.728C7.32036 26.728 7.07227 27.0467 7.07227 27.6841V45.3169C7.07227 45.9542 7.32036 46.2729 7.81543 46.2729C8.3102 46.2728 8.55762 45.954 8.55762 45.3169V27.6841C8.55762 27.0469 8.3102 26.7282 7.81543 26.728ZM44.5576 24.9575H61.5312V20.355H69.665V42.0239H44.2041C43.0254 42.0239 41.9529 41.8352 40.9863 41.4575C40.0433 41.0798 39.2296 40.5608 38.5459 39.8999C37.8858 39.2154 37.3674 38.4007 36.9902 37.4565C36.6131 36.4889 36.4249 35.4149 36.4248 34.2349V20.355H44.5576V24.9575ZM180 27.436H154.893V32.1099C154.893 32.7471 155.082 33.2662 155.459 33.6675C155.86 34.0451 156.378 34.2348 157.015 34.2349H180V41.3159H154.539C153.36 41.3159 152.288 41.1272 151.321 40.7495C150.379 40.3719 149.565 39.8526 148.882 39.1919C148.222 38.5074 147.702 37.6927 147.325 36.7485C146.948 35.7807 146.76 34.7061 146.76 33.5259V20.355H180V27.436ZM122.252 20.355C123.761 20.355 125.152 20.4965 126.425 20.7798C127.698 21.0631 128.794 21.5233 129.714 22.1606C130.657 22.7743 131.388 23.5766 131.906 24.5679C132.425 25.5592 132.684 26.7631 132.684 28.1792C132.684 29.5955 132.425 30.8001 131.906 31.7915C131.388 32.7829 130.657 33.5975 129.714 34.2349C128.794 34.8486 127.698 35.2963 126.425 35.5796C125.152 35.8629 123.761 36.0044 122.252 36.0044H120.06C118.551 36.0044 117.16 35.8629 115.887 35.5796C114.614 35.2963 113.505 34.8486 112.562 34.2349C111.643 33.5976 110.925 32.7827 110.406 31.7915C109.888 30.8001 109.628 29.5955 109.628 28.1792C109.628 26.7631 109.888 25.5592 110.406 24.5679C110.925 23.5767 111.643 22.7743 112.562 22.1606C113.505 21.5233 114.614 21.0631 115.887 20.7798C117.16 20.4965 118.551 20.355 120.06 20.355H122.252ZM44.5576 33.5259C44.5576 34.1632 44.7468 34.6832 45.124 35.0845C45.5247 35.4619 46.0434 35.6509 46.6797 35.6509H61.5312V31.3306H44.5576V33.5259ZM119.883 26.728C119.27 26.728 118.763 26.834 118.362 27.0464C117.985 27.2588 117.797 27.6365 117.797 28.1792C117.797 28.7221 117.985 29.1005 118.362 29.313C118.763 29.5254 119.27 29.6313 119.883 29.6313H122.429C123.042 29.6313 123.537 29.5254 123.914 29.313C124.315 29.1005 124.516 28.7221 124.516 28.1792C124.516 27.6365 124.315 27.2588 123.914 27.0464C123.537 26.834 123.042 26.728 122.429 26.728H119.883Z" fill="url(#paint0_linear_186_2056)"/>
<defs>
<linearGradient id="paint0_linear_186_2056" x1="0" y1="36.5005" x2="180" y2="36.5005" gradientUnits="userSpaceOnUse">
<stop stop-color="#00802B"/>
<stop offset="0.711538" stop-color="#FF8F1E"/>
</linearGradient>
</defs>
</svg>
