<svg width="218" height="53" viewBox="0 0 218 53" fill="none" xmlns="http://www.w3.org/2000/svg">
<path d="M163.98 11.9363C163.742 11.9363 163.534 11.8512 163.358 11.681C163.192 11.5108 163.109 11.298 163.109 11.0427C163.109 10.7874 163.192 10.5799 163.358 10.4204C163.524 10.2501 163.731 10.165 163.98 10.165C164.229 10.165 164.436 10.2501 164.602 10.4204C164.768 10.5799 164.851 10.7874 164.851 11.0427C164.851 11.298 164.763 11.5108 164.587 11.681C164.421 11.8512 164.219 11.9363 163.98 11.9363Z" fill="#666666"/>
<path d="M161.042 11.8401H159.968V10.037C159.668 10.6327 159.253 11.0955 158.724 11.4253C158.205 11.755 157.614 11.9199 156.95 11.9199C156.225 11.9199 155.571 11.7391 154.99 11.3774C154.41 11.0157 153.948 10.5104 153.606 9.86147C153.274 9.21254 153.108 8.46788 153.108 7.62748C153.108 6.79771 153.274 6.05837 153.606 5.40944C153.948 4.76052 154.41 4.26054 154.99 3.90948C155.571 3.54779 156.225 3.36694 156.95 3.36694C157.604 3.36694 158.19 3.52651 158.708 3.84565C159.237 4.16479 159.647 4.61159 159.937 5.18605V0H161.042V11.8401ZM157.09 10.8668C157.63 10.8668 158.117 10.7338 158.553 10.4678C158.988 10.2019 159.33 9.82423 159.579 9.33488C159.828 8.83489 159.953 8.26576 159.953 7.62748C159.953 6.99983 159.828 6.44133 159.579 5.95199C159.33 5.46263 158.988 5.08498 158.553 4.81903C158.117 4.54244 157.63 4.40415 157.09 4.40415C156.551 4.40415 156.064 4.54244 155.628 4.81903C155.193 5.08498 154.85 5.46263 154.602 5.95199C154.353 6.44133 154.228 6.99983 154.228 7.62748C154.228 8.26576 154.353 8.83489 154.602 9.33488C154.85 9.82423 155.193 10.2019 155.628 10.4678C156.064 10.7338 156.551 10.8668 157.09 10.8668Z" fill="#666666"/>
<path d="M149.311 5.10608C149.56 4.53163 149.933 4.09547 150.431 3.7976C150.929 3.49974 151.525 3.35612 152.22 3.36676V4.51567C152.158 4.50503 152.064 4.49971 151.94 4.49971C151.131 4.49971 150.498 4.76566 150.042 5.29757C149.586 5.82947 149.358 6.57945 149.358 7.54751V11.84H148.238V3.44655H149.311V5.10608Z" fill="#666666"/>
<path d="M142.585 3.36719C143.611 3.36719 144.394 3.64378 144.934 4.19696C145.483 4.7395 145.758 5.55331 145.758 6.63839V11.8404H144.7V10.4043C144.462 10.883 144.109 11.2553 143.642 11.5212C143.186 11.7872 142.642 11.9202 142.009 11.9202C141.128 11.9202 140.433 11.6968 139.925 11.25C139.417 10.8032 139.162 10.2128 139.162 9.47874C139.162 8.76599 139.406 8.19154 139.894 7.75538C140.381 7.31922 141.143 7.10114 142.18 7.10114H144.638C144.638 6.782 144.617 6.51073 144.576 6.28733C144.482 5.01076 143.777 4.37248 142.46 4.37248C141.962 4.37248 141.485 4.46291 141.029 4.64375C140.573 4.8246 140.189 5.06927 139.878 5.37778L139.396 4.53205C139.8 4.15972 140.282 3.87249 140.842 3.67037C141.402 3.46825 141.983 3.36719 142.585 3.36719ZM142.211 11.0106C143.414 11.0106 144.223 10.4468 144.638 9.31917V7.91495H142.258C140.931 7.91495 140.267 8.42026 140.267 9.43087C140.267 9.92022 140.438 10.3085 140.78 10.5957C141.122 10.8723 141.6 11.0106 142.211 11.0106Z" fill="#666666"/>
<path d="M135.665 11.8407H134.622L132.227 5.05893L129.785 11.8407H128.758L125.818 3.44727H126.876L129.287 10.4524L131.76 3.44727H132.709L135.151 10.4524L137.593 3.44727H138.605L135.665 11.8407Z" fill="#666666"/>
<path d="M125.371 7.94686H118.885C118.936 8.82982 119.237 9.54257 119.787 10.0851C120.347 10.617 121.052 10.883 121.902 10.883C122.39 10.883 122.836 10.7925 123.24 10.6117C123.655 10.4308 123.997 10.1596 124.267 9.79788L124.905 10.5319C124.542 10.9893 124.101 11.3351 123.582 11.5691C123.064 11.8032 122.499 11.9202 121.887 11.9202C121.088 11.9202 120.373 11.7393 119.74 11.3776C119.118 11.0053 118.631 10.4947 118.278 9.84576C117.936 9.19683 117.765 8.45749 117.765 7.62772C117.765 6.80859 117.931 6.07989 118.262 5.44161C118.594 4.79269 119.051 4.28738 119.631 3.92569C120.222 3.55335 120.876 3.36719 121.591 3.36719C122.307 3.36719 122.95 3.54803 123.52 3.90973C124.101 4.26078 124.557 4.75545 124.889 5.39373C125.221 6.03202 125.387 6.76604 125.387 7.59581L125.371 7.94686ZM121.607 4.34057C120.86 4.34057 120.233 4.6012 119.725 5.12246C119.227 5.63309 118.947 6.30329 118.885 7.13305H124.329C124.257 6.31392 123.966 5.64373 123.458 5.12246C122.96 4.6012 122.343 4.34057 121.607 4.34057Z" fill="#666666"/>
<path d="M113.475 8.24977C113.257 8.29232 112.993 8.3136 112.682 8.3136H109.944V11.8401H108.793V0.670166H112.682C114.009 0.670166 115.051 1.01058 115.809 1.69142C116.566 2.36161 116.944 3.29244 116.944 4.4839C116.944 5.35622 116.737 6.09557 116.322 6.70194C115.917 7.3083 115.337 7.74446 114.58 8.01042L117.131 11.8401H115.84L113.475 8.24977ZM112.651 7.26043C113.667 7.26043 114.44 7.02108 114.969 6.54237C115.508 6.05302 115.777 5.36686 115.777 4.4839C115.777 3.61158 115.508 2.93607 114.969 2.45736C114.44 1.97864 113.667 1.73929 112.651 1.73929H109.944V7.26043H112.651Z" fill="#666666"/>
<path d="M102.908 10.165C103.157 10.165 103.364 10.2501 103.53 10.4204C103.696 10.5906 103.779 10.798 103.779 11.0427C103.779 11.1703 103.758 11.3086 103.717 11.4576C103.686 11.6065 103.639 11.7767 103.577 11.9682L102.908 14.1862H102.083L102.628 11.8724C102.452 11.8193 102.312 11.7182 102.208 11.5693C102.104 11.4203 102.052 11.2448 102.052 11.0427C102.052 10.7874 102.135 10.5799 102.301 10.4204C102.467 10.2501 102.669 10.165 102.908 10.165Z" fill="#666666"/>
<path d="M98.1611 12.83C97.85 13.6172 97.4818 14.1757 97.0566 14.5055C96.6314 14.8353 96.1285 15.0002 95.5477 15.0002C95.164 15.0002 94.8063 14.9364 94.4744 14.8087C94.1425 14.681 93.8625 14.4896 93.6344 14.2342L94.1322 13.3406C94.5159 13.7662 94.9774 13.9789 95.5166 13.9789C95.8485 13.9789 96.1181 13.8938 96.3255 13.7236C96.5433 13.564 96.73 13.3406 96.8855 13.0534C97.0411 12.7768 97.2329 12.3673 97.4611 11.8247L93.9766 3.44727H95.1433L98.0366 10.4684L100.93 3.44727H102.034L98.1611 12.83Z" fill="#666666"/>
<path d="M90.0847 3.36719C91.1114 3.36719 91.8943 3.64378 92.4336 4.19696C92.9832 4.7395 93.258 5.55331 93.258 6.63839V11.8404H92.2003V10.4043C91.9617 10.883 91.6091 11.2553 91.1425 11.5212C90.6862 11.7872 90.1417 11.9202 89.5091 11.9202C88.6277 11.9202 87.9328 11.6968 87.4247 11.25C86.9165 10.8032 86.6625 10.2128 86.6625 9.47874C86.6625 8.76599 86.9062 8.19154 87.3936 7.75538C87.881 7.31922 88.6432 7.10114 89.6803 7.10114H92.138C92.138 6.782 92.1173 6.51073 92.0758 6.28733C91.9825 5.01076 91.2773 4.37248 89.9603 4.37248C89.4625 4.37248 88.9854 4.46291 88.5291 4.64375C88.0728 4.8246 87.6891 5.06927 87.378 5.37778L86.8958 4.53205C87.3003 4.15972 87.7825 3.87249 88.3425 3.67037C88.9025 3.46825 89.4832 3.36719 90.0847 3.36719ZM89.7114 11.0106C90.9143 11.0106 91.7232 10.4468 92.138 9.31917V7.91495H89.758C88.4306 7.91495 87.7669 8.42026 87.7669 9.43087C87.7669 9.92022 87.938 10.3085 88.2803 10.5957C88.6225 10.8723 89.0995 11.0106 89.7114 11.0106Z" fill="#666666"/>
<path d="M84.7662 11.8401H83.6929V10.037C83.3921 10.6327 82.9773 11.0955 82.4484 11.4253C81.9299 11.755 81.3388 11.9199 80.6751 11.9199C79.9492 11.9199 79.2959 11.7391 78.7151 11.3774C78.1344 11.0157 77.6729 10.5104 77.3307 9.86147C76.9988 9.21254 76.8329 8.46788 76.8329 7.62748C76.8329 6.79771 76.9988 6.05837 77.3307 5.40944C77.6729 4.76052 78.1344 4.26054 78.7151 3.90948C79.2959 3.54779 79.9492 3.36694 80.6751 3.36694C81.3284 3.36694 81.9144 3.52651 82.4329 3.84565C82.9618 4.16479 83.3714 4.61159 83.6618 5.18605V0H84.7662V11.8401ZM80.8151 10.8668C81.3544 10.8668 81.8418 10.7338 82.2773 10.4678C82.7129 10.2019 83.0551 9.82423 83.304 9.33488C83.5529 8.83489 83.6773 8.26576 83.6773 7.62748C83.6773 6.99983 83.5529 6.44133 83.304 5.95199C83.0551 5.46263 82.7129 5.08498 82.2773 4.81903C81.8418 4.54244 81.3544 4.40415 80.8151 4.40415C80.2759 4.40415 79.7884 4.54244 79.3529 4.81903C78.9173 5.08498 78.5751 5.46263 78.3262 5.95199C78.0773 6.44133 77.9529 6.99983 77.9529 7.62748C77.9529 8.26576 78.0773 8.83489 78.3262 9.33488C78.5751 9.82423 78.9173 10.2019 79.3529 10.4678C79.7884 10.7338 80.2759 10.8668 80.8151 10.8668Z" fill="#666666"/>
<path d="M72.6083 12.83C72.2972 13.6172 71.9291 14.1757 71.5039 14.5055C71.0787 14.8353 70.5757 15.0002 69.995 15.0002C69.6113 15.0002 69.2535 14.9364 68.9217 14.8087C68.5898 14.681 68.3098 14.4896 68.0817 14.2342L68.5794 13.3406C68.9631 13.7662 69.4246 13.9789 69.9639 13.9789C70.2957 13.9789 70.5654 13.8938 70.7728 13.7236C70.9906 13.564 71.1772 13.3406 71.3328 13.0534C71.4883 12.7768 71.6802 12.3673 71.9083 11.8247L68.4239 3.44727H69.5906L72.4839 10.4684L75.3772 3.44727H76.4817L72.6083 12.83Z" fill="#666666"/>
<path d="M64.6821 5.10608C64.931 4.53163 65.3043 4.09547 65.8021 3.7976C66.2999 3.49974 66.8962 3.35612 67.591 3.36676V4.51567C67.5288 4.50503 67.4354 4.49971 67.311 4.49971C66.5021 4.49971 65.8695 4.76566 65.4132 5.29757C64.9569 5.82947 64.7288 6.57945 64.7288 7.54751V11.84H63.6088V3.44655H64.6821V5.10608Z" fill="#666666"/>
<path d="M61.8244 7.94686H55.3378C55.3896 8.82982 55.6904 9.54257 56.24 10.0851C56.8 10.617 57.5052 10.883 58.3556 10.883C58.843 10.883 59.2889 10.7925 59.6933 10.6117C60.1081 10.4308 60.4504 10.1596 60.72 9.79788L61.3578 10.5319C60.9948 10.9893 60.5541 11.3351 60.0356 11.5691C59.517 11.8032 58.9518 11.9202 58.34 11.9202C57.5415 11.9202 56.8259 11.7393 56.1933 11.3776C55.5711 11.0053 55.0837 10.4947 54.7311 9.84576C54.3889 9.19683 54.2178 8.45749 54.2178 7.62772C54.2178 6.80859 54.3837 6.07989 54.7156 5.44161C55.0474 4.79269 55.5037 4.28738 56.0844 3.92569C56.6756 3.55335 57.3289 3.36719 58.0444 3.36719C58.76 3.36719 59.403 3.54803 59.9733 3.90973C60.5541 4.26078 61.0104 4.75545 61.3422 5.39373C61.6741 6.03202 61.84 6.76604 61.84 7.59581L61.8244 7.94686ZM58.06 4.34057C57.3133 4.34057 56.6859 4.6012 56.1778 5.12246C55.68 5.63309 55.4 6.30329 55.3378 7.13305H60.7822C60.7096 6.31392 60.4193 5.64373 59.9111 5.12246C59.4133 4.6012 58.7963 4.34057 58.06 4.34057Z" fill="#666666"/>
<path d="M50.4131 11.8407H49.2931L45.8242 3.44727H46.9909L49.8842 10.4843L52.7776 3.44727H53.882L50.4131 11.8407Z" fill="#666666"/>
<path d="M45.3422 11.8401H38V0.670166H45.14V1.72333H39.1511V5.64877H44.4867V6.68598H39.1511V10.771H45.3422V11.8401Z" fill="#666666"/>
<path d="M45.8154 20C47.1119 20 48.2435 20.1888 49.21 20.5664C50.2 20.9441 51.0255 21.4872 51.6855 22.1953C52.3455 22.8798 52.8283 23.7178 53.1348 24.709C53.4648 25.6768 53.6299 26.7629 53.6299 27.9668V32.251H55.0801V20.3545H62.1523V52.6465H55.0801V38.9785H53.6299V45.0332C53.6299 46.2371 53.4648 47.3232 53.1348 48.291C52.8283 49.2822 52.3454 50.1202 51.6855 50.8047C51.0255 51.5128 50.2 52.0559 49.21 52.4336C48.2435 52.8112 47.1119 53 45.8154 53C44.4953 53 43.3513 52.8113 42.3848 52.4336C41.4183 52.0559 40.6054 51.5128 39.9453 50.8047C39.2853 50.1202 38.79 49.2824 38.46 48.291C38.1535 47.3232 38 46.2371 38 45.0332V27.9668C38 26.7629 38.1535 25.6768 38.46 24.709C38.79 23.7177 39.2853 22.8798 39.9453 22.1953C40.6054 21.4873 41.4183 20.9441 42.3848 20.5664C43.3513 20.1887 44.4953 20 45.8154 20ZM70.5332 52.6465H63.4609V20.3545H70.5332V52.6465ZM107.665 52.6455H74.4248V45.5645H107.665V52.6455ZM124.853 20.3545C125.984 20.3545 127.022 20.5904 127.965 21.0625C128.908 21.511 129.709 22.1601 130.369 23.0098C131.029 23.8595 131.536 24.8861 131.89 26.0898C132.267 27.2701 132.455 28.5922 132.455 30.0557C132.455 31.5191 132.267 32.8528 131.89 34.0566C131.536 35.2368 131.029 36.2518 130.369 37.1016C129.709 37.9513 128.908 38.6129 127.965 39.085C127.022 39.5335 125.984 39.7578 124.853 39.7578H122.519C121.552 39.7579 120.774 40.0409 120.185 40.6074C119.619 41.1739 119.336 41.9175 119.336 42.8379C119.336 43.7583 119.619 44.5019 120.185 45.0684C120.774 45.6348 121.552 45.9189 122.519 45.9189H135.603V20.3545H143.736V52.6455H119.831C118.535 52.6455 117.356 52.4096 116.295 51.9375C115.234 51.489 114.327 50.8399 113.572 49.9902C112.818 49.1405 112.228 48.1255 111.804 46.9453C111.403 45.7415 111.203 44.4078 111.203 42.9443C111.203 41.4809 111.403 40.1588 111.804 38.9785C112.228 37.7747 112.818 36.7482 113.572 35.8984C114.327 35.0487 115.234 34.3987 116.295 33.9502C117.356 33.4781 118.535 33.2422 119.831 33.2422H121.14C122.106 33.2422 122.873 32.9832 123.438 32.4639C124.028 31.921 124.322 31.2007 124.322 30.3037C124.322 29.3124 124.028 28.5333 123.438 27.9668C122.873 27.3767 122.106 27.0811 121.14 27.0811H111.91V20.3545H124.853ZM170.33 44.502H162.656V52.6455H154.523V44.502H148.335V37.7744H170.33V44.502ZM180.515 52.6455H164.778V46.2725H172.381V20.3545H180.515V52.6455ZM218 52.6455H184.76V45.5645H218V52.6455ZM45.8154 26.7275C45.3204 26.7275 45.0723 27.0463 45.0723 27.6836V45.3164C45.0723 45.9537 45.3204 46.2725 45.8154 46.2725C46.3102 46.2723 46.5576 45.9536 46.5576 45.3164V27.6836C46.5576 27.0464 46.3102 26.7277 45.8154 26.7275ZM82.5576 24.957H99.5312V20.3545H107.665V42.0234H82.2041C81.0254 42.0234 79.9529 41.8347 78.9863 41.457C78.0433 41.0793 77.2296 40.5604 76.5459 39.8994C75.8858 39.2149 75.3674 38.4002 74.9902 37.4561C74.6131 36.4884 74.4249 35.4144 74.4248 34.2344V20.3545H82.5576V24.957ZM218 27.4355H192.893V32.1094C192.893 32.7467 193.082 33.2657 193.459 33.667C193.86 34.0447 194.378 34.2344 195.015 34.2344H218V41.3154H192.539C191.36 41.3154 190.288 41.1267 189.321 40.749C188.379 40.3714 187.565 39.8521 186.882 39.1914C186.222 38.5069 185.702 37.6922 185.325 36.748C184.948 35.7802 184.76 34.7057 184.76 33.5254V20.3545H218V27.4355ZM160.252 20.3545C161.761 20.3545 163.152 20.496 164.425 20.7793C165.698 21.0626 166.794 21.5228 167.714 22.1602C168.657 22.7739 169.388 23.5761 169.906 24.5674C170.425 25.5587 170.684 26.7626 170.684 28.1787C170.684 29.595 170.425 30.7996 169.906 31.791C169.388 32.7824 168.657 33.5971 167.714 34.2344C166.794 34.8481 165.698 35.2958 164.425 35.5791C163.152 35.8624 161.761 36.0039 160.252 36.0039H158.06C156.551 36.0039 155.16 35.8624 153.887 35.5791C152.614 35.2958 151.505 34.8481 150.562 34.2344C149.643 33.5971 148.925 32.7822 148.406 31.791C147.888 30.7996 147.628 29.595 147.628 28.1787C147.628 26.7626 147.888 25.5587 148.406 24.5674C148.925 23.5763 149.643 22.7738 150.562 22.1602C151.505 21.5229 152.614 21.0626 153.887 20.7793C155.16 20.496 156.551 20.3545 158.06 20.3545H160.252ZM82.5576 33.5254C82.5576 34.1627 82.7468 34.6827 83.124 35.084C83.5247 35.4614 84.0434 35.6504 84.6797 35.6504H99.5312V31.3301H82.5576V33.5254ZM157.883 26.7275C157.27 26.7275 156.763 26.8335 156.362 27.0459C155.985 27.2583 155.797 27.636 155.797 28.1787C155.797 28.7216 155.985 29.1001 156.362 29.3125C156.763 29.5249 157.27 29.6309 157.883 29.6309H160.429C161.042 29.6309 161.537 29.5249 161.914 29.3125C162.315 29.1001 162.516 28.7216 162.516 28.1787C162.516 27.636 162.315 27.2583 161.914 27.0459C161.537 26.8335 161.042 26.7275 160.429 26.7275H157.883Z" fill="url(#paint0_linear_186_1977)"/>
<path d="M16.5 20C20.5519 20.0001 24.2619 21.4614 27.1338 23.8848H20.6768V35.8848H23.916V32.6221H26.5635L28.2227 35.8848H31.5537L29.5918 31.9375C30.1712 31.534 30.6058 31.0075 30.8955 30.3584C31.0731 29.9668 31.1957 29.5593 31.2676 29.1367C32.375 31.3534 33 33.8536 33 36.5C33 45.6126 25.6125 52.9998 16.5 53C7.3873 53 0 45.6127 0 36.5C0 27.3873 7.3873 20 16.5 20ZM9 23.8848V32.9902C9.00002 33.4286 9.07057 33.8231 9.21094 34.1738C9.35138 34.5334 9.54427 34.8364 9.79004 35.082C10.0446 35.3364 10.3481 35.5335 10.6992 35.6738C11.0591 35.8141 11.4586 35.8848 11.8975 35.8848H19.0215V33.1738H13.0293C12.7924 33.1738 12.5994 33.1041 12.4502 32.9639C12.3097 32.8147 12.2393 32.6216 12.2393 32.3848V31.082H18.8896V28.4238H12.2393V26.5957H19.0215V23.8848H9ZM26.458 26.543C26.9583 26.543 27.3578 26.7009 27.6562 27.0166C27.9545 27.3235 28.1035 27.7357 28.1035 28.2529C28.1035 28.7703 27.9546 29.1872 27.6562 29.5029C27.3578 29.8099 26.9583 29.9638 26.458 29.9639H23.916V26.543H26.458Z" fill="#888888"/>
<defs>
<linearGradient id="paint0_linear_186_1977" x1="38" y1="36.5" x2="218" y2="36.5" gradientUnits="userSpaceOnUse">
<stop stop-color="#888888"/>
<stop offset="0.71" stop-color="#666666"/>
</linearGradient>
</defs>
</svg>
