<svg width="218" height="53" viewBox="0 0 218 53" fill="none" xmlns="http://www.w3.org/2000/svg">
<path d="M16.5 20C20.5519 20.0001 24.2619 21.4614 27.1338 23.8848H20.6768V35.8848H23.916V32.6221H26.5635L28.2227 35.8848H31.5537L29.5918 31.9375C30.1712 31.534 30.6058 31.0075 30.8955 30.3584C31.0731 29.9668 31.1957 29.5593 31.2676 29.1367C32.375 31.3534 33 33.8536 33 36.5C33 45.6126 25.6125 52.9998 16.5 53C7.3873 53 0 45.6127 0 36.5C0 27.3873 7.3873 20 16.5 20ZM9 23.8848V32.9902C9.00002 33.4286 9.07057 33.8231 9.21094 34.1738C9.35138 34.5334 9.54427 34.8364 9.79004 35.082C10.0446 35.3364 10.3481 35.5335 10.6992 35.6738C11.0591 35.8141 11.4586 35.8848 11.8975 35.8848H19.0215V33.1738H13.0293C12.7924 33.1738 12.5994 33.1041 12.4502 32.9639C12.3097 32.8147 12.2393 32.6216 12.2393 32.3848V31.082H18.8896V28.4238H12.2393V26.5957H19.0215V23.8848H9ZM26.458 26.543C26.9583 26.543 27.3578 26.7009 27.6562 27.0166C27.9545 27.3235 28.1035 27.7357 28.1035 28.2529C28.1035 28.7703 27.9546 29.1872 27.6562 29.5029C27.3578 29.8099 26.9583 29.9638 26.458 29.9639H23.916V26.543H26.458Z" fill="#00802B"/>
<path d="M163.98 11.9363C163.742 11.9363 163.534 11.8512 163.358 11.681C163.192 11.5108 163.109 11.298 163.109 11.0427C163.109 10.7874 163.192 10.5799 163.358 10.4204C163.524 10.2501 163.731 10.165 163.98 10.165C164.229 10.165 164.436 10.2501 164.602 10.4204C164.768 10.5799 164.851 10.7874 164.851 11.0427C164.851 11.298 164.763 11.5108 164.587 11.681C164.421 11.8512 164.219 11.9363 163.98 11.9363Z" fill="#505300"/>
<path d="M161.042 11.8403H159.968V10.0372C159.668 10.6329 159.253 11.0957 158.724 11.4254C158.205 11.7552 157.614 11.9201 156.95 11.9201C156.225 11.9201 155.571 11.7393 154.99 11.3776C154.41 11.0159 153.948 10.5106 153.606 9.86163C153.274 9.2127 153.108 8.46802 153.108 7.6276C153.108 6.79782 153.274 6.05847 153.606 5.40954C153.948 4.7606 154.41 4.26061 154.99 3.90955C155.571 3.54785 156.225 3.367 156.95 3.367C157.604 3.367 158.19 3.52657 158.708 3.84572C159.237 4.16486 159.647 4.61167 159.937 5.18613V0H161.042V11.8403ZM157.09 10.8669C157.63 10.8669 158.117 10.734 158.553 10.468C158.988 10.2021 159.33 9.8244 159.579 9.33504C159.828 8.83504 159.953 8.2659 159.953 7.6276C159.953 6.99995 159.828 6.44144 159.579 5.95208C159.33 5.46273 158.988 5.08507 158.553 4.81911C158.117 4.54252 157.63 4.40422 157.09 4.40422C156.551 4.40422 156.064 4.54252 155.628 4.81911C155.193 5.08507 154.85 5.46273 154.602 5.95208C154.353 6.44144 154.228 6.99995 154.228 7.6276C154.228 8.2659 154.353 8.83504 154.602 9.33504C154.85 9.8244 155.193 10.2021 155.628 10.468C156.064 10.734 156.551 10.8669 157.09 10.8669Z" fill="#505300"/>
<path d="M149.311 5.1066C149.56 4.53213 149.933 4.09597 150.431 3.7981C150.929 3.50023 151.525 3.35661 152.22 3.36725V4.51618C152.158 4.50554 152.064 4.50022 151.94 4.50022C151.131 4.50022 150.498 4.76618 150.042 5.29809C149.586 5.83 149.358 6.57999 149.358 7.54807V11.8406H148.238V3.44704H149.311V5.1066Z" fill="#505300"/>
<path d="M142.585 3.36719C143.611 3.36719 144.394 3.64378 144.934 4.19697C145.483 4.73952 145.758 5.55334 145.758 6.63844V11.8405H144.7V10.4044C144.462 10.8831 144.109 11.2554 143.642 11.5214C143.186 11.7873 142.642 11.9203 142.009 11.9203C141.128 11.9203 140.433 11.6969 139.925 11.2501C139.417 10.8033 139.162 10.2129 139.162 9.47885C139.162 8.76608 139.406 8.19162 139.894 7.75545C140.381 7.31929 141.143 7.1012 142.18 7.1012H144.638C144.638 6.78206 144.617 6.51078 144.576 6.28738C144.482 5.01079 143.777 4.3725 142.46 4.3725C141.962 4.3725 141.485 4.46292 141.029 4.64377C140.573 4.82462 140.189 5.0693 139.878 5.37781L139.396 4.53207C139.8 4.15974 140.282 3.8725 140.842 3.67038C141.402 3.46825 141.983 3.36719 142.585 3.36719ZM142.211 11.0107C143.414 11.0107 144.223 10.4469 144.638 9.31927V7.91503H142.258C140.931 7.91503 140.267 8.42034 140.267 9.43097C140.267 9.92033 140.438 10.3086 140.78 10.5959C141.122 10.8725 141.6 11.0107 142.211 11.0107Z" fill="#505300"/>
<path d="M135.665 11.8408H134.622L132.227 5.05896L129.785 11.8408H128.758L125.818 3.44727H126.876L129.287 10.4525L131.76 3.44727H132.709L135.151 10.4525L137.593 3.44727H138.605L135.665 11.8408Z" fill="#505300"/>
<path d="M125.371 7.94694H118.885C118.936 8.82991 119.237 9.54267 119.787 10.0852C120.347 10.6171 121.052 10.8831 121.902 10.8831C122.39 10.8831 122.836 10.7927 123.24 10.6118C123.655 10.431 123.997 10.1597 124.267 9.79799L124.905 10.532C124.542 10.9895 124.101 11.3352 123.582 11.5693C123.064 11.8033 122.499 11.9203 121.887 11.9203C121.088 11.9203 120.373 11.7395 119.74 11.3778C119.118 11.0054 118.631 10.4948 118.278 9.84586C117.936 9.19693 117.765 8.45758 117.765 7.62779C117.765 6.80865 117.931 6.07993 118.262 5.44164C118.594 4.79271 119.051 4.28739 119.631 3.92569C120.222 3.55336 120.876 3.36719 121.591 3.36719C122.307 3.36719 122.95 3.54804 123.52 3.90974C124.101 4.2608 124.557 4.75548 124.889 5.39377C125.221 6.03206 125.387 6.7661 125.387 7.59588L125.371 7.94694ZM121.607 4.34059C120.86 4.34059 120.233 4.60122 119.725 5.12249C119.227 5.63313 118.947 6.30334 118.885 7.13312H124.329C124.257 6.31397 123.966 5.64377 123.458 5.12249C122.96 4.60122 122.343 4.34059 121.607 4.34059Z" fill="#505300"/>
<path d="M113.475 8.2499C113.257 8.29245 112.993 8.31373 112.682 8.31373H109.944V11.8403H108.793V0.670166H112.682C114.009 0.670166 115.051 1.01059 115.809 1.69143C116.566 2.36164 116.944 3.29249 116.944 4.48397C116.944 5.3563 116.737 6.09566 116.322 6.70204C115.917 7.30841 115.337 7.74458 114.58 8.01054L117.131 11.8403H115.84L113.475 8.2499ZM112.651 7.26054C113.667 7.26054 114.44 7.02118 114.969 6.54246C115.508 6.0531 115.777 5.36694 115.777 4.48397C115.777 3.61163 115.508 2.93611 114.969 2.45739C114.44 1.97867 113.667 1.73931 112.651 1.73931H109.944V7.26054H112.651Z" fill="#505300"/>
<path d="M102.908 10.165C103.157 10.165 103.364 10.2501 103.53 10.4204C103.696 10.5906 103.779 10.798 103.779 11.0427C103.779 11.1704 103.758 11.3086 103.717 11.4576C103.686 11.6065 103.639 11.7767 103.577 11.9682L102.908 14.1863H102.083L102.628 11.8725C102.452 11.8193 102.312 11.7182 102.208 11.5693C102.104 11.4203 102.052 11.2448 102.052 11.0427C102.052 10.7874 102.135 10.5799 102.301 10.4204C102.467 10.2501 102.669 10.165 102.908 10.165Z" fill="#505300"/>
<path d="M98.1611 12.8302C97.85 13.6174 97.4818 14.1759 97.0566 14.5057C96.6314 14.8355 96.1285 15.0004 95.5477 15.0004C95.164 15.0004 94.8063 14.9365 94.4744 14.8089C94.1425 14.6812 93.8625 14.4897 93.6344 14.2344L94.1322 13.3408C94.5159 13.7663 94.9774 13.9791 95.5166 13.9791C95.8485 13.9791 96.1181 13.894 96.3255 13.7238C96.5433 13.5642 96.73 13.3408 96.8855 13.0536C97.0411 12.777 97.2329 12.3674 97.4611 11.8249L93.9766 3.44727H95.1433L98.0366 10.4685L100.93 3.44727H102.034L98.1611 12.8302Z" fill="#505300"/>
<path d="M90.0847 3.36719C91.1114 3.36719 91.8943 3.64378 92.4336 4.19697C92.9832 4.73952 93.258 5.55334 93.258 6.63844V11.8405H92.2003V10.4044C91.9617 10.8831 91.6091 11.2554 91.1425 11.5214C90.6862 11.7873 90.1417 11.9203 89.5091 11.9203C88.6277 11.9203 87.9328 11.6969 87.4247 11.2501C86.9165 10.8033 86.6625 10.2129 86.6625 9.47885C86.6625 8.76608 86.9062 8.19162 87.3936 7.75545C87.881 7.31929 88.6432 7.1012 89.6803 7.1012H92.138C92.138 6.78206 92.1173 6.51078 92.0758 6.28738C91.9825 5.01079 91.2773 4.3725 89.9603 4.3725C89.4625 4.3725 88.9854 4.46292 88.5291 4.64377C88.0728 4.82462 87.6891 5.0693 87.378 5.37781L86.8958 4.53207C87.3003 4.15974 87.7825 3.8725 88.3425 3.67038C88.9025 3.46825 89.4832 3.36719 90.0847 3.36719ZM89.7114 11.0107C90.9143 11.0107 91.7232 10.4469 92.138 9.31927V7.91503H89.758C88.4306 7.91503 87.7669 8.42034 87.7669 9.43097C87.7669 9.92033 87.938 10.3086 88.2803 10.5959C88.6225 10.8725 89.0995 11.0107 89.7114 11.0107Z" fill="#505300"/>
<path d="M84.7662 11.8403H83.6929V10.0372C83.3921 10.6329 82.9773 11.0957 82.4484 11.4254C81.9299 11.7552 81.3388 11.9201 80.6751 11.9201C79.9492 11.9201 79.2959 11.7393 78.7151 11.3776C78.1344 11.0159 77.6729 10.5106 77.3307 9.86163C76.9988 9.2127 76.8329 8.46802 76.8329 7.6276C76.8329 6.79782 76.9988 6.05847 77.3307 5.40954C77.6729 4.7606 78.1344 4.26061 78.7151 3.90955C79.2959 3.54785 79.9492 3.367 80.6751 3.367C81.3284 3.367 81.9144 3.52657 82.4329 3.84572C82.9618 4.16486 83.3714 4.61167 83.6618 5.18613V0H84.7662V11.8403ZM80.8151 10.8669C81.3544 10.8669 81.8418 10.734 82.2773 10.468C82.7129 10.2021 83.0551 9.8244 83.304 9.33504C83.5529 8.83504 83.6773 8.2659 83.6773 7.6276C83.6773 6.99995 83.5529 6.44144 83.304 5.95208C83.0551 5.46273 82.7129 5.08507 82.2773 4.81911C81.8418 4.54252 81.3544 4.40422 80.8151 4.40422C80.2759 4.40422 79.7884 4.54252 79.3529 4.81911C78.9173 5.08507 78.5751 5.46273 78.3262 5.95208C78.0773 6.44144 77.9529 6.99995 77.9529 7.6276C77.9529 8.2659 78.0773 8.83504 78.3262 9.33504C78.5751 9.8244 78.9173 10.2021 79.3529 10.468C79.7884 10.734 80.2759 10.8669 80.8151 10.8669Z" fill="#505300"/>
<path d="M72.6083 12.8302C72.2972 13.6174 71.9291 14.1759 71.5039 14.5057C71.0787 14.8355 70.5757 15.0004 69.995 15.0004C69.6113 15.0004 69.2535 14.9365 68.9217 14.8089C68.5898 14.6812 68.3098 14.4897 68.0817 14.2344L68.5794 13.3408C68.9631 13.7663 69.4246 13.9791 69.9639 13.9791C70.2957 13.9791 70.5654 13.894 70.7728 13.7238C70.9906 13.5642 71.1772 13.3408 71.3328 13.0536C71.4883 12.777 71.6802 12.3674 71.9083 11.8249L68.4239 3.44727H69.5906L72.4839 10.4685L75.3772 3.44727H76.4817L72.6083 12.8302Z" fill="#505300"/>
<path d="M64.6821 5.1066C64.931 4.53213 65.3043 4.09597 65.8021 3.7981C66.2999 3.50023 66.8962 3.35661 67.591 3.36725V4.51618C67.5288 4.50554 67.4354 4.50022 67.311 4.50022C66.5021 4.50022 65.8695 4.76618 65.4132 5.29809C64.9569 5.83 64.7288 6.57999 64.7288 7.54807V11.8406H63.6088V3.44704H64.6821V5.1066Z" fill="#505300"/>
<path d="M61.8244 7.94694H55.3378C55.3896 8.82991 55.6904 9.54267 56.24 10.0852C56.8 10.6171 57.5052 10.8831 58.3556 10.8831C58.843 10.8831 59.2889 10.7927 59.6933 10.6118C60.1081 10.431 60.4504 10.1597 60.72 9.79799L61.3578 10.532C60.9948 10.9895 60.5541 11.3352 60.0356 11.5693C59.517 11.8033 58.9518 11.9203 58.34 11.9203C57.5415 11.9203 56.8259 11.7395 56.1933 11.3778C55.5711 11.0054 55.0837 10.4948 54.7311 9.84586C54.3889 9.19693 54.2178 8.45758 54.2178 7.62779C54.2178 6.80865 54.3837 6.07993 54.7156 5.44164C55.0474 4.79271 55.5037 4.28739 56.0844 3.92569C56.6756 3.55336 57.3289 3.36719 58.0444 3.36719C58.76 3.36719 59.403 3.54804 59.9733 3.90974C60.5541 4.2608 61.0104 4.75548 61.3422 5.39377C61.6741 6.03206 61.84 6.7661 61.84 7.59588L61.8244 7.94694ZM58.06 4.34059C57.3133 4.34059 56.6859 4.60122 56.1778 5.12249C55.68 5.63313 55.4 6.30334 55.3378 7.13312H60.7822C60.7096 6.31397 60.4193 5.64377 59.9111 5.12249C59.4133 4.60122 58.7963 4.34059 58.06 4.34059Z" fill="#505300"/>
<path d="M50.4131 11.8408H49.2931L45.8242 3.44727H46.9909L49.8842 10.4844L52.7776 3.44727H53.882L50.4131 11.8408Z" fill="#505300"/>
<path d="M45.3422 11.8403H38V0.670166H45.14V1.72335H39.1511V5.64885H44.4867V6.68608H39.1511V10.7712H45.3422V11.8403Z" fill="#505300"/>
<path d="M45.8154 20.0005C47.1119 20.0005 48.2435 20.1893 49.21 20.5669C50.2 20.9446 51.0255 21.4877 51.6855 22.1958C52.3455 22.8802 52.8283 23.7183 53.1348 24.7095C53.4648 25.6773 53.6299 26.7634 53.6299 27.9673V32.2515H55.0801V20.355H62.1523V52.647H55.0801V38.979H53.6299V45.0337C53.6299 46.2376 53.4648 47.3237 53.1348 48.2915C52.8283 49.2827 52.3454 50.1207 51.6855 50.8052C51.0255 51.5133 50.2 52.0564 49.21 52.4341C48.2435 52.8117 47.1119 53.0004 45.8154 53.0005C44.4953 53.0005 43.3513 52.8118 42.3848 52.4341C41.4183 52.0564 40.6054 51.5133 39.9453 50.8052C39.2853 50.1207 38.79 49.2828 38.46 48.2915C38.1535 47.3237 38 46.2376 38 45.0337V27.9673C38 26.7634 38.1535 25.6773 38.46 24.7095C38.79 23.7182 39.2853 22.8803 39.9453 22.1958C40.6054 21.4877 41.4183 20.9445 42.3848 20.5669C43.3513 20.1892 44.4953 20.0005 45.8154 20.0005ZM70.5332 52.647H63.4609V20.355H70.5332V52.647ZM107.665 52.646H74.4248V45.5649H107.665V52.646ZM124.853 20.355C125.984 20.355 127.022 20.5909 127.965 21.063C128.908 21.5115 129.709 22.1606 130.369 23.0103C131.029 23.86 131.536 24.8866 131.89 26.0903C132.267 27.2706 132.455 28.5927 132.455 30.0562C132.455 31.5196 132.267 32.8533 131.89 34.0571C131.536 35.2373 131.029 36.2523 130.369 37.1021C129.709 37.9518 128.908 38.6133 127.965 39.0854C127.022 39.5339 125.984 39.7583 124.853 39.7583H122.519C121.552 39.7584 120.774 40.0414 120.185 40.6079C119.619 41.1744 119.336 41.918 119.336 42.8384C119.336 43.7588 119.619 44.5024 120.185 45.0688C120.774 45.6353 121.552 45.9194 122.519 45.9194H135.603V20.355H143.736V52.646H119.831C118.535 52.646 117.356 52.4101 116.295 51.938C115.234 51.4895 114.327 50.8404 113.572 49.9907C112.818 49.141 112.228 48.126 111.804 46.9458C111.403 45.742 111.203 44.4083 111.203 42.9448C111.203 41.4813 111.403 40.1592 111.804 38.979C112.228 37.7752 112.818 36.7487 113.572 35.8989C114.327 35.0491 115.234 34.3992 116.295 33.9507C117.356 33.4786 118.535 33.2427 119.831 33.2427H121.14C122.106 33.2427 122.873 32.9836 123.438 32.4644C124.028 31.9215 124.322 31.2012 124.322 30.3042C124.322 29.3129 124.028 28.5338 123.438 27.9673C122.873 27.3772 122.106 27.0815 121.14 27.0815H111.91V20.355H124.853ZM170.33 44.5024H162.656V52.646H154.523V44.5024H148.335V37.7749H170.33V44.5024ZM180.515 52.646H164.778V46.2729H172.381V20.355H180.515V52.646ZM218 52.646H184.76V45.5649H218V52.646ZM45.8154 26.728C45.3204 26.728 45.0723 27.0467 45.0723 27.6841V45.3169C45.0723 45.9542 45.3204 46.2729 45.8154 46.2729C46.3102 46.2728 46.5576 45.954 46.5576 45.3169V27.6841C46.5576 27.0469 46.3102 26.7282 45.8154 26.728ZM82.5576 24.9575H99.5312V20.355H107.665V42.0239H82.2041C81.0254 42.0239 79.9529 41.8352 78.9863 41.4575C78.0433 41.0798 77.2296 40.5608 76.5459 39.8999C75.8858 39.2154 75.3674 38.4007 74.9902 37.4565C74.6131 36.4889 74.4249 35.4149 74.4248 34.2349V20.355H82.5576V24.9575ZM218 27.436H192.893V32.1099C192.893 32.7471 193.082 33.2662 193.459 33.6675C193.86 34.0451 194.378 34.2348 195.015 34.2349H218V41.3159H192.539C191.36 41.3159 190.288 41.1272 189.321 40.7495C188.379 40.3719 187.565 39.8526 186.882 39.1919C186.222 38.5074 185.702 37.6927 185.325 36.7485C184.948 35.7807 184.76 34.7061 184.76 33.5259V20.355H218V27.436ZM160.252 20.355C161.761 20.355 163.152 20.4965 164.425 20.7798C165.698 21.0631 166.794 21.5233 167.714 22.1606C168.657 22.7743 169.388 23.5766 169.906 24.5679C170.425 25.5592 170.684 26.7631 170.684 28.1792C170.684 29.5955 170.425 30.8001 169.906 31.7915C169.388 32.7829 168.657 33.5975 167.714 34.2349C166.794 34.8486 165.698 35.2963 164.425 35.5796C163.152 35.8629 161.761 36.0044 160.252 36.0044H158.06C156.551 36.0044 155.16 35.8629 153.887 35.5796C152.614 35.2963 151.505 34.8486 150.562 34.2349C149.643 33.5976 148.925 32.7827 148.406 31.7915C147.888 30.8001 147.628 29.5955 147.628 28.1792C147.628 26.7631 147.888 25.5592 148.406 24.5679C148.925 23.5767 149.643 22.7743 150.562 22.1606C151.505 21.5233 152.614 21.0631 153.887 20.7798C155.16 20.4965 156.551 20.355 158.06 20.355H160.252ZM82.5576 33.5259C82.5576 34.1632 82.7468 34.6832 83.124 35.0845C83.5247 35.4619 84.0434 35.6509 84.6797 35.6509H99.5312V31.3306H82.5576V33.5259ZM157.883 26.728C157.27 26.728 156.763 26.834 156.362 27.0464C155.985 27.2588 155.797 27.6365 155.797 28.1792C155.797 28.7221 155.985 29.1005 156.362 29.313C156.763 29.5254 157.27 29.6313 157.883 29.6313H160.429C161.042 29.6313 161.537 29.5254 161.914 29.313C162.315 29.1005 162.516 28.7221 162.516 28.1792C162.516 27.6365 162.315 27.2588 161.914 27.0464C161.537 26.834 161.042 26.728 160.429 26.728H157.883Z" fill="url(#paint0_linear_186_1946)"/>
<defs>
<linearGradient id="paint0_linear_186_1946" x1="38" y1="36.5005" x2="218" y2="36.5005" gradientUnits="userSpaceOnUse">
<stop stop-color="#00802B"/>
<stop offset="0.711538" stop-color="#FF8F1E"/>
</linearGradient>
</defs>
</svg>
