<svg width="180" height="53" viewBox="0 0 180 53" fill="none" xmlns="http://www.w3.org/2000/svg">
<path d="M7.81543 20C9.11185 20 10.2435 20.1888 11.21 20.5664C12.2 20.9441 13.0255 21.4872 13.6855 22.1953C14.3455 22.8798 14.8283 23.7178 15.1348 24.709C15.4648 25.6768 15.6299 26.7629 15.6299 27.9668V32.251H17.0801V20.3545H24.1523V52.6465H17.0801V38.9785H15.6299V45.0332C15.6299 46.2371 15.4648 47.3232 15.1348 48.291C14.8283 49.2822 14.3454 50.1202 13.6855 50.8047C13.0255 51.5128 12.2 52.0559 11.21 52.4336C10.2435 52.8112 9.11185 53 7.81543 53C6.49525 53 5.35133 52.8113 4.38477 52.4336C3.41831 52.0559 2.60536 51.5128 1.94531 50.8047C1.28526 50.1202 0.790006 49.2824 0.459961 48.291C0.153491 47.3232 0 46.2371 0 45.0332V27.9668C0 26.7629 0.153491 25.6768 0.459961 24.709C0.790006 23.7177 1.28529 22.8798 1.94531 22.1953C2.60536 21.4873 3.41832 20.9441 4.38477 20.5664C5.35133 20.1887 6.49525 20 7.81543 20ZM32.5332 52.6465H25.4609V20.3545H32.5332V52.6465ZM69.665 52.6455H36.4248V45.5645H69.665V52.6455ZM86.8525 20.3545C87.9841 20.3545 89.0219 20.5904 89.9648 21.0625C90.9077 21.511 91.7091 22.1601 92.3691 23.0098C93.0292 23.8595 93.536 24.8861 93.8896 26.0898C94.2668 27.2701 94.4551 28.5922 94.4551 30.0557C94.4551 31.5191 94.2668 32.8528 93.8896 34.0566C93.5361 35.2368 93.0292 36.2518 92.3691 37.1016C91.7091 37.9513 90.9078 38.6129 89.9648 39.085C89.0219 39.5335 87.9841 39.7578 86.8525 39.7578H84.5186C83.5521 39.7579 82.7739 40.0409 82.1846 40.6074C81.619 41.1739 81.336 41.9175 81.3359 42.8379C81.3359 43.7583 81.619 44.5019 82.1846 45.0684C82.7739 45.6348 83.5521 45.9189 84.5186 45.9189H97.6025V20.3545H105.736V52.6455H81.8311C80.5346 52.6455 79.3557 52.4096 78.2949 51.9375C77.2342 51.489 76.3266 50.8399 75.5723 49.9902C74.8179 49.1405 74.228 48.1255 73.8037 46.9453C73.403 45.7415 73.2031 44.4078 73.2031 42.9443C73.2031 41.4809 73.403 40.1588 73.8037 38.9785C74.228 37.7747 74.818 36.7482 75.5723 35.8984C76.3267 35.0487 77.2341 34.3987 78.2949 33.9502C79.3557 33.4781 80.5346 33.2422 81.8311 33.2422H83.1396C84.1062 33.2422 84.8727 32.9832 85.4385 32.4639C86.0278 31.921 86.3222 31.2007 86.3223 30.3037C86.3223 29.3124 86.0277 28.5333 85.4385 27.9668C84.8727 27.3767 84.1062 27.0811 83.1396 27.0811H73.9102V20.3545H86.8525ZM132.33 44.502H124.656V52.6455H116.523V44.502H110.335V37.7744H132.33V44.502ZM142.515 52.6455H126.778V46.2725H134.381V20.3545H142.515V52.6455ZM180 52.6455H146.76V45.5645H180V52.6455ZM7.81543 26.7275C7.32036 26.7275 7.07227 27.0463 7.07227 27.6836V45.3164C7.07227 45.9537 7.32036 46.2725 7.81543 46.2725C8.3102 46.2723 8.55762 45.9536 8.55762 45.3164V27.6836C8.55762 27.0464 8.3102 26.7277 7.81543 26.7275ZM44.5576 24.957H61.5312V20.3545H69.665V42.0234H44.2041C43.0254 42.0234 41.9529 41.8347 40.9863 41.457C40.0433 41.0793 39.2296 40.5604 38.5459 39.8994C37.8858 39.2149 37.3674 38.4002 36.9902 37.4561C36.6131 36.4884 36.4249 35.4144 36.4248 34.2344V20.3545H44.5576V24.957ZM180 27.4355H154.893V32.1094C154.893 32.7467 155.082 33.2657 155.459 33.667C155.86 34.0447 156.378 34.2344 157.015 34.2344H180V41.3154H154.539C153.36 41.3154 152.288 41.1267 151.321 40.749C150.379 40.3714 149.565 39.8521 148.882 39.1914C148.222 38.5069 147.702 37.6922 147.325 36.748C146.948 35.7802 146.76 34.7057 146.76 33.5254V20.3545H180V27.4355ZM122.252 20.3545C123.761 20.3545 125.152 20.496 126.425 20.7793C127.698 21.0626 128.794 21.5228 129.714 22.1602C130.657 22.7739 131.388 23.5761 131.906 24.5674C132.425 25.5587 132.684 26.7626 132.684 28.1787C132.684 29.595 132.425 30.7996 131.906 31.791C131.388 32.7824 130.657 33.5971 129.714 34.2344C128.794 34.8481 127.698 35.2958 126.425 35.5791C125.152 35.8624 123.761 36.0039 122.252 36.0039H120.06C118.551 36.0039 117.16 35.8624 115.887 35.5791C114.614 35.2958 113.505 34.8481 112.562 34.2344C111.643 33.5971 110.925 32.7822 110.406 31.791C109.888 30.7996 109.628 29.595 109.628 28.1787C109.628 26.7626 109.888 25.5587 110.406 24.5674C110.925 23.5763 111.643 22.7738 112.562 22.1602C113.505 21.5229 114.614 21.0626 115.887 20.7793C117.16 20.496 118.551 20.3545 120.06 20.3545H122.252ZM44.5576 33.5254C44.5576 34.1627 44.7468 34.6827 45.124 35.084C45.5247 35.4614 46.0434 35.6504 46.6797 35.6504H61.5312V31.3301H44.5576V33.5254ZM119.883 26.7275C119.27 26.7275 118.763 26.8335 118.362 27.0459C117.985 27.2583 117.797 27.636 117.797 28.1787C117.797 28.7216 117.985 29.1001 118.362 29.3125C118.763 29.5249 119.27 29.6309 119.883 29.6309H122.429C123.042 29.6309 123.537 29.5249 123.914 29.3125C124.315 29.1001 124.516 28.7216 124.516 28.1787C124.516 27.636 124.315 27.2583 123.914 27.0459C123.537 26.8335 123.042 26.7275 122.429 26.7275H119.883Z" fill="url(#paint0_linear_168_2594)"/>
<path d="M163.952 9.90918C164.201 9.90918 164.408 9.99214 164.574 10.1581C164.74 10.324 164.823 10.5262 164.823 10.7647C164.823 10.8892 164.802 11.024 164.761 11.1692C164.73 11.3144 164.683 11.4803 164.621 11.667L163.952 13.8292H163.127L163.672 11.5736C163.495 11.5218 163.355 11.4233 163.252 11.2781C163.148 11.1329 163.096 10.9618 163.096 10.7647C163.096 10.5158 163.179 10.3136 163.345 10.1581C163.511 9.99214 163.713 9.90918 163.952 9.90918Z" fill="#505300"/>
<path d="M159.205 12.5065C158.894 13.2739 158.526 13.8184 158.1 14.1399C157.675 14.4613 157.172 14.6221 156.592 14.6221C156.208 14.6221 155.85 14.5599 155.518 14.4354C155.186 14.311 154.906 14.1243 154.678 13.8754L155.176 13.0043C155.56 13.4191 156.021 13.6265 156.56 13.6265C156.892 13.6265 157.162 13.5436 157.369 13.3776C157.587 13.2221 157.774 13.0043 157.929 12.7243C158.085 12.4547 158.277 12.0554 158.505 11.5265L155.02 3.35986H156.187L159.08 10.2043L161.974 3.35986H163.078L159.205 12.5065Z" fill="#505300"/>
<path d="M151.129 3.28223C152.155 3.28223 152.938 3.55186 153.477 4.09112C154.027 4.62 154.302 5.41334 154.302 6.47112V11.5422H153.244V10.1422C153.006 10.6089 152.653 10.9719 152.186 11.2311C151.73 11.4904 151.186 11.62 150.553 11.62C149.671 11.62 148.977 11.4022 148.469 10.9667C147.96 10.5311 147.706 9.95556 147.706 9.24C147.706 8.54519 147.95 7.98519 148.437 7.56C148.925 7.13482 149.687 6.92223 150.724 6.92223H153.182C153.182 6.61112 153.161 6.34667 153.12 6.12889C153.026 4.88445 152.321 4.26223 151.004 4.26223C150.506 4.26223 150.029 4.35037 149.573 4.52667C149.117 4.70297 148.733 4.94149 148.422 5.24223L147.94 4.41778C148.344 4.05482 148.826 3.77482 149.386 3.57778C149.946 3.38074 150.527 3.28223 151.129 3.28223ZM150.755 10.7333C151.958 10.7333 152.767 10.1837 153.182 9.08445V7.71556H150.802C149.474 7.71556 148.811 8.20815 148.811 9.19334C148.811 9.67038 148.982 10.0489 149.324 10.3289C149.666 10.5985 150.143 10.7333 150.755 10.7333Z" fill="#505300"/>
<path d="M145.81 11.5422H144.737V9.78444C144.436 10.3652 144.021 10.8163 143.492 11.1378C142.974 11.4593 142.383 11.62 141.719 11.62C140.993 11.62 140.34 11.4437 139.759 11.0911C139.178 10.7385 138.717 10.2459 138.374 9.61333C138.043 8.98074 137.877 8.25482 137.877 7.43556C137.877 6.62667 138.043 5.90593 138.374 5.27333C138.717 4.64074 139.178 4.15333 139.759 3.81111C140.34 3.45852 140.993 3.28222 141.719 3.28222C142.372 3.28222 142.958 3.43778 143.477 3.74889C144.006 4.06 144.415 4.49556 144.706 5.05556V0H145.81V11.5422ZM141.859 10.5933C142.398 10.5933 142.886 10.4637 143.321 10.2044C143.757 9.94519 144.099 9.57704 144.348 9.1C144.597 8.61259 144.721 8.05778 144.721 7.43556C144.721 6.8237 144.597 6.27926 144.348 5.80222C144.099 5.32519 143.757 4.95704 143.321 4.69778C142.886 4.42815 142.398 4.29333 141.859 4.29333C141.32 4.29333 140.832 4.42815 140.397 4.69778C139.961 4.95704 139.619 5.32519 139.37 5.80222C139.121 6.27926 138.997 6.8237 138.997 7.43556C138.997 8.05778 139.121 8.61259 139.37 9.1C139.619 9.57704 139.961 9.94519 140.397 10.2044C140.832 10.4637 141.32 10.5933 141.859 10.5933Z" fill="#505300"/>
<path d="M133.652 12.5065C133.341 13.2739 132.973 13.8184 132.548 14.1399C132.122 14.4613 131.619 14.6221 131.039 14.6221C130.655 14.6221 130.297 14.5599 129.965 14.4354C129.634 14.311 129.354 14.1243 129.125 13.8754L129.623 13.0043C130.007 13.4191 130.468 13.6265 131.008 13.6265C131.339 13.6265 131.609 13.5436 131.816 13.3776C132.034 13.2221 132.221 13.0043 132.376 12.7243C132.532 12.4547 132.724 12.0554 132.952 11.5265L129.468 3.35986H130.634L133.528 10.2043L136.421 3.35986H137.525L133.652 12.5065Z" fill="#505300"/>
<path d="M125.726 4.97783C125.975 4.41783 126.348 3.99265 126.846 3.70227C127.344 3.4119 127.94 3.2719 128.635 3.28227V4.40227C128.573 4.3919 128.479 4.38672 128.355 4.38672C127.546 4.38672 126.913 4.64598 126.457 5.1645C126.001 5.68302 125.773 6.41413 125.773 7.35783V11.5423H124.653V3.36005H125.726V4.97783Z" fill="#505300"/>
<path d="M122.868 7.74667H116.381C116.433 8.60741 116.734 9.30223 117.284 9.83112C117.844 10.3496 118.549 10.6089 119.399 10.6089C119.887 10.6089 120.333 10.5207 120.737 10.3444C121.152 10.1682 121.494 9.90371 121.764 9.55112L122.401 10.2667C122.039 10.7126 121.598 11.0496 121.079 11.2778C120.561 11.5059 119.996 11.62 119.384 11.62C118.585 11.62 117.87 11.4437 117.237 11.0911C116.615 10.7282 116.127 10.2304 115.775 9.59778C115.433 8.96519 115.261 8.24445 115.261 7.43556C115.261 6.63704 115.427 5.92667 115.759 5.30445C116.091 4.67186 116.547 4.17926 117.128 3.82667C117.719 3.46371 118.373 3.28223 119.088 3.28223C119.804 3.28223 120.447 3.45852 121.017 3.81112C121.598 4.15334 122.054 4.63556 122.386 5.25778C122.718 5.88 122.884 6.59556 122.884 7.40445L122.868 7.74667ZM119.104 4.23112C118.357 4.23112 117.73 4.48519 117.221 4.99334C116.724 5.49112 116.444 6.14445 116.381 6.95334H121.826C121.753 6.15482 121.463 5.50149 120.955 4.99334C120.457 4.48519 119.84 4.23112 119.104 4.23112Z" fill="#505300"/>
<path d="M111.457 11.5421H110.337L106.868 3.35986H108.035L110.928 10.2199L113.821 3.35986H114.926L111.457 11.5421Z" fill="#505300"/>
<path d="M106.386 11.5422H99.0437V0.65332H106.184V1.67999H100.195V5.50665H105.53V6.51777H100.195V10.5H106.386V11.5422Z" fill="#505300"/>
<path d="M93.1587 11.6358C92.9202 11.6358 92.7128 11.5529 92.5365 11.387C92.3706 11.221 92.2876 11.0136 92.2876 10.7647C92.2876 10.5158 92.3706 10.3136 92.5365 10.1581C92.7024 9.99214 92.9098 9.90918 93.1587 9.90918C93.4076 9.90918 93.615 9.99214 93.7809 10.1581C93.9469 10.3136 94.0298 10.5158 94.0298 10.7647C94.0298 11.0136 93.9417 11.221 93.7654 11.387C93.5994 11.5529 93.3972 11.6358 93.1587 11.6358Z" fill="#505300"/>
<path d="M90.5314 7.77785H89.4581V4.13785H87.4047V7.6534H86.3469V0.186734H87.4047V3.06451H89.4581V0.124512H90.5314V7.77785ZM85.4447 6.72007C84.7603 7.02081 83.6558 7.17118 82.1314 7.17118H80.0625V0.451178H85.0714V1.41562H81.1203V3.3134H84.9158V4.26229H81.1203V6.20673H82.2247C83.6455 6.20673 84.7188 6.05636 85.4447 5.75562V6.72007ZM90.5314 8.47785V12.0401H89.4114V9.48896H80.6069V8.47785H90.5314Z" fill="#505300"/>
<path d="M72.8308 2.06882V3.1266H67.0908V2.06882H69.4864V0.0932617H70.6064V2.06882H72.8308ZM78.213 12.071H77.1708V0.124373H78.213V12.071ZM75.5997 0.186595V11.8688H74.573V8.43104H73.1108V7.34215H74.573V4.99326H73.1108V3.88882H74.573V0.186595H75.5997ZM70.0775 4.16882C70.8345 4.16882 71.4412 4.4903 71.8975 5.13326C72.3642 5.76585 72.5975 6.65771 72.5975 7.80882C72.5975 8.95993 72.3642 9.85697 71.8975 10.4999C71.4412 11.1429 70.8345 11.4644 70.0775 11.4644C69.3205 11.4644 68.7086 11.1429 68.2419 10.4999C67.7753 9.85697 67.5419 8.95993 67.5419 7.80882C67.5419 6.65771 67.7753 5.76585 68.2419 5.13326C68.7086 4.4903 69.3205 4.16882 70.0775 4.16882ZM70.0775 10.4222C70.5234 10.4222 70.8812 10.194 71.1508 9.73771C71.4308 9.27104 71.5708 8.62808 71.5708 7.80882C71.5708 6.98956 71.4308 6.35178 71.1508 5.89548C70.8812 5.42882 70.5234 5.19548 70.0775 5.19548C69.6316 5.19548 69.2686 5.42882 68.9886 5.89548C68.719 6.35178 68.5842 6.98956 68.5842 7.80882C68.5842 8.62808 68.719 9.27104 68.9886 9.73771C69.2686 10.194 69.6316 10.4222 70.0775 10.4222Z" fill="#505300"/>
<path d="M62.5696 3.6868V4.71347H52.8162V0.140137H53.9363V3.6868H62.5696ZM51.9607 7.20236V6.19125H63.2851V7.20236H51.9607ZM62.6785 10.8735V11.9001H52.7851V8.36903H53.9207V10.8735H62.6785Z" fill="#505300"/>
<path d="M49.0535 12.0712V0.124512H50.189V12.0712H49.0535ZM43.5779 0.435623C44.615 0.435623 45.4394 0.90229 46.0513 1.83562C46.6735 2.76896 46.9846 4.14303 46.9846 5.95785C46.9846 7.77266 46.6735 9.14673 46.0513 10.0801C45.4394 11.0134 44.615 11.4801 43.5779 11.4801C42.5409 11.4801 41.7113 11.0134 41.089 10.0801C40.4772 9.14673 40.1713 7.77266 40.1713 5.95785C40.1713 4.14303 40.4772 2.76896 41.089 1.83562C41.7113 0.90229 42.5409 0.435623 43.5779 0.435623ZM43.5779 1.50896C42.8831 1.50896 42.3283 1.88229 41.9135 2.62896C41.4987 3.36525 41.2913 4.47488 41.2913 5.95785C41.2913 7.45118 41.4987 8.56599 41.9135 9.30229C42.3283 10.0386 42.8831 10.4067 43.5779 10.4067C44.252 10.4067 44.8016 10.0386 45.2268 9.30229C45.652 8.55562 45.8646 7.44081 45.8646 5.95785C45.8646 4.48525 45.652 3.37562 45.2268 2.62896C44.8016 1.88229 44.252 1.50896 43.5779 1.50896Z" fill="#505300"/>
<path d="M39.1929 3.43785H37.6063V6.16007H36.5018V0.124512H37.6063V2.34896H39.1929V3.43785ZM29.3307 3.84229C28.7914 4.83784 28.0085 5.47562 26.9818 5.75562V4.66673C27.6455 4.44896 28.1588 3.93044 28.5218 3.11118C28.8848 2.29192 29.0766 1.33785 29.0974 0.248956L30.1551 0.280067C30.1448 1.24451 30.0151 2.11562 29.7663 2.8934L31.0574 4.55785C31.6381 4.24673 32.084 3.70229 32.3951 2.92451C32.7063 2.13636 32.8722 1.24451 32.8929 0.248956L33.9507 0.280067C33.93 1.23414 33.8211 2.03266 33.624 2.67562L35.7551 4.9934L35.0085 5.66229L33.2351 3.65562C32.6855 4.77562 31.8663 5.47562 30.7774 5.75562L29.3307 3.84229ZM38.0107 7.10896V8.01118H27.8374V7.10896H32.364V5.92673H33.484V7.10896H38.0107ZM32.924 8.72673C34.5107 8.72673 35.6774 8.87192 36.424 9.16229C37.1811 9.44229 37.5596 9.86229 37.5596 10.4223C37.5596 10.9823 37.1811 11.4023 36.424 11.6823C35.6774 11.9727 34.5107 12.1178 32.924 12.1178C31.3374 12.1178 30.1707 11.9727 29.424 11.6823C28.6774 11.4023 28.304 10.9823 28.304 10.4223C28.304 9.86229 28.6774 9.44229 29.424 9.16229C30.1707 8.87192 31.3374 8.72673 32.924 8.72673ZM32.924 11.2623C34.0544 11.2623 34.9151 11.1949 35.5063 11.0601C36.0974 10.9149 36.3929 10.7023 36.3929 10.4223C36.3929 10.1527 36.0922 9.94525 35.4907 9.80007C34.8996 9.64451 34.044 9.56673 32.924 9.56673C31.8144 9.56673 30.9588 9.64451 30.3574 9.80007C29.7663 9.94525 29.4707 10.1527 29.4707 10.4223C29.4707 10.7023 29.7663 10.9149 30.3574 11.0601C30.9485 11.1949 31.804 11.2623 32.924 11.2623Z" fill="#505300"/>
<path d="M21.3405 6.00451V0.124512H22.4761V6.00451H21.3405ZM15.6783 0.264512C16.3835 0.264512 17.0005 0.383771 17.5294 0.622289C18.0583 0.860808 18.4627 1.18747 18.7427 1.60229C19.0227 2.0171 19.1627 2.49414 19.1627 3.0334C19.1627 3.56229 19.0227 4.03933 18.7427 4.46451C18.4627 4.87933 18.0583 5.20599 17.5294 5.44451C17.0005 5.67266 16.3835 5.78673 15.6783 5.78673C14.9627 5.78673 14.3405 5.67266 13.8116 5.44451C13.2931 5.20599 12.8938 4.87933 12.6138 4.46451C12.3338 4.0497 12.1938 3.57266 12.1938 3.0334C12.1938 2.49414 12.3338 2.0171 12.6138 1.60229C12.8938 1.18747 13.2931 0.860808 13.8116 0.622289C14.3405 0.383771 14.9627 0.264512 15.6783 0.264512ZM15.6783 1.22896C14.9627 1.22896 14.3872 1.3897 13.9516 1.71118C13.5161 2.02229 13.2983 2.46303 13.2983 3.0334C13.2983 3.60377 13.5161 4.04451 13.9516 4.35562C14.3872 4.66673 14.9627 4.82229 15.6783 4.82229C16.3938 4.82229 16.9694 4.66673 17.405 4.35562C17.8405 4.04451 18.0583 3.60377 18.0583 3.0334C18.0583 2.46303 17.8405 2.02229 17.405 1.71118C16.9694 1.3897 16.3938 1.22896 15.6783 1.22896ZM14.2005 9.72229V10.9823H22.7872V11.8845H13.0805V8.88229H21.3561V7.60673H13.0494V6.70451H22.4761V9.72229H14.2005Z" fill="#505300"/>
<path d="M10.4689 12.0712H9.39556V6.14451H7.34222V11.869H6.28444V0.186734H7.34222V5.02451H9.39556V0.124512H10.4689V12.0712ZM4.80667 0.591178V11.3245H0V0.591178H4.80667ZM3.73333 10.2512V1.66451H1.05778V10.2512H3.73333Z" fill="#505300"/>
<defs>
<linearGradient id="paint0_linear_168_2594" x1="0" y1="36.5" x2="180" y2="36.5" gradientUnits="userSpaceOnUse">
<stop stop-color="#00802B"/>
<stop offset="0.711538" stop-color="#FF8F1E"/>
</linearGradient>
</defs>
</svg>
