<svg width="218" height="54" viewBox="0 0 218 54" fill="none" xmlns="http://www.w3.org/2000/svg">
<path d="M45.8154 20.1152C47.1119 20.1153 48.2435 20.304 49.21 20.6816C50.2 21.0593 51.0255 21.6024 51.6855 22.3105C52.3455 22.995 52.8283 23.833 53.1348 24.8242C53.4648 25.792 53.6299 26.8782 53.6299 28.082V32.3662H55.0801V20.4697H62.1523V52.7617H55.0801V39.0938H53.6299V45.1484C53.6299 46.3523 53.4648 47.4384 53.1348 48.4062C52.8283 49.3974 52.3454 50.2355 51.6855 50.9199C51.0255 51.628 50.2 52.1711 49.21 52.5488C48.2435 52.9265 47.1119 53.1152 45.8154 53.1152C44.4953 53.1152 43.3513 52.9265 42.3848 52.5488C41.4183 52.1712 40.6054 51.628 39.9453 50.9199C39.2853 50.2354 38.79 49.3976 38.46 48.4062C38.1535 47.4384 38 46.3523 38 45.1484V28.082C38 26.8782 38.1535 25.792 38.46 24.8242C38.79 23.8329 39.2853 22.995 39.9453 22.3105C40.6054 21.6025 41.4183 21.0593 42.3848 20.6816C43.3513 20.304 44.4953 20.1152 45.8154 20.1152ZM70.5332 52.7617H63.4609V20.4697H70.5332V52.7617ZM107.665 52.7607H74.4248V45.6797H107.665V52.7607ZM124.853 20.4697C125.984 20.4697 127.022 20.7056 127.965 21.1777C128.908 21.6262 129.709 22.2753 130.369 23.125C131.029 23.9747 131.536 25.0014 131.89 26.2051C132.267 27.3853 132.455 28.7074 132.455 30.1709C132.455 31.6344 132.267 32.968 131.89 34.1719C131.536 35.352 131.029 36.3671 130.369 37.2168C129.709 38.0665 128.908 38.7281 127.965 39.2002C127.022 39.6487 125.984 39.873 124.853 39.873H122.519C121.552 39.8731 120.774 40.1562 120.185 40.7227C119.619 41.2891 119.336 42.0327 119.336 42.9531C119.336 43.8735 119.619 44.6171 120.185 45.1836C120.774 45.7501 121.552 46.0341 122.519 46.0342H135.603V20.4697H143.736V52.7607H119.831C118.535 52.7607 117.356 52.5248 116.295 52.0527C115.234 51.6042 114.327 50.9552 113.572 50.1055C112.818 49.2557 112.228 48.2408 111.804 47.0605C111.403 45.8567 111.203 44.523 111.203 43.0596C111.203 41.5961 111.403 40.274 111.804 39.0938C112.228 37.89 112.818 36.8634 113.572 36.0137C114.327 35.1639 115.234 34.5139 116.295 34.0654C117.356 33.5934 118.535 33.3575 119.831 33.3574H121.14C122.106 33.3574 122.873 33.0984 123.438 32.5791C124.028 32.0362 124.322 31.3159 124.322 30.4189C124.322 29.4276 124.028 28.6485 123.438 28.082C122.873 27.4919 122.106 27.1963 121.14 27.1963H111.91V20.4697H124.853ZM170.33 44.6172H162.656V52.7607H154.523V44.6172H148.335V37.8896H170.33V44.6172ZM180.515 52.7607H164.778V46.3877H172.381V20.4697H180.515V52.7607ZM218 52.7607H184.76V45.6797H218V52.7607ZM45.8154 26.8428C45.3204 26.8428 45.0723 27.1615 45.0723 27.7988V45.4316C45.0723 46.069 45.3204 46.3877 45.8154 46.3877C46.3102 46.3875 46.5576 46.0688 46.5576 45.4316V27.7988C46.5576 27.1617 46.3102 26.843 45.8154 26.8428ZM82.5576 25.0723H99.5312V20.4697H107.665V42.1387H82.2041C81.0254 42.1387 79.9529 41.9499 78.9863 41.5723C78.0433 41.1946 77.2296 40.6756 76.5459 40.0146C75.8858 39.3301 75.3674 38.5155 74.9902 37.5713C74.6131 36.6036 74.4249 35.5297 74.4248 34.3496V20.4697H82.5576V25.0723ZM218 27.5508H192.893V32.2246C192.893 32.8619 193.082 33.381 193.459 33.7822C193.86 34.1599 194.378 34.3496 195.015 34.3496H218V41.4307H192.539C191.36 41.4306 190.288 41.2419 189.321 40.8643C188.379 40.4866 187.565 39.9674 186.882 39.3066C186.222 38.6221 185.702 37.8075 185.325 36.8633C184.948 35.8955 184.76 34.8209 184.76 33.6406V20.4697H218V27.5508ZM160.252 20.4697C161.761 20.4697 163.152 20.6113 164.425 20.8945C165.698 21.1778 166.794 21.6381 167.714 22.2754C168.657 22.8891 169.388 23.6914 169.906 24.6826C170.425 25.6739 170.684 26.8778 170.684 28.2939C170.684 29.7103 170.425 30.9148 169.906 31.9062C169.388 32.8976 168.657 33.7123 167.714 34.3496C166.794 34.9633 165.698 35.4111 164.425 35.6943C163.152 35.9776 161.761 36.1191 160.252 36.1191H158.06C156.551 36.1191 155.16 35.9776 153.887 35.6943C152.614 35.4111 151.505 34.9633 150.562 34.3496C149.643 33.7124 148.925 32.8975 148.406 31.9062C147.888 30.9148 147.628 29.7103 147.628 28.2939C147.628 26.8778 147.888 25.6739 148.406 24.6826C148.925 23.6915 149.643 22.889 150.562 22.2754C151.505 21.6381 152.614 21.1778 153.887 20.8945C155.16 20.6113 156.551 20.4697 158.06 20.4697H160.252ZM82.5576 33.6406C82.5576 34.278 82.7468 34.7979 83.124 35.1992C83.5247 35.5767 84.0434 35.7656 84.6797 35.7656H99.5312V31.4453H82.5576V33.6406ZM157.883 26.8428C157.27 26.8428 156.763 26.9487 156.362 27.1611C155.985 27.3735 155.797 27.7513 155.797 28.2939C155.797 28.8369 155.985 29.2153 156.362 29.4277C156.763 29.6401 157.27 29.7461 157.883 29.7461H160.429C161.042 29.7461 161.537 29.6401 161.914 29.4277C162.315 29.2153 162.516 28.8369 162.516 28.2939C162.516 27.7513 162.315 27.3735 161.914 27.1611C161.537 26.9487 161.042 26.8428 160.429 26.8428H157.883Z" fill="url(#paint0_linear_185_1864)"/>
<path d="M201.952 10.6523C202.201 10.6523 202.408 10.7353 202.574 10.9012C202.74 11.0672 202.823 11.2694 202.823 11.5079C202.823 11.6323 202.802 11.7672 202.761 11.9123C202.729 12.0575 202.683 12.2235 202.621 12.4101L201.952 14.5723H201.127L201.672 12.3168C201.495 12.2649 201.355 12.1664 201.252 12.0212C201.148 11.876 201.096 11.7049 201.096 11.5079C201.096 11.259 201.179 11.0568 201.345 10.9012C201.511 10.7353 201.713 10.6523 201.952 10.6523Z" fill="#666666"/>
<path d="M197.205 13.2497C196.894 14.0171 196.526 14.5615 196.1 14.883C195.675 15.2045 195.172 15.3652 194.591 15.3652C194.208 15.3652 193.85 15.303 193.518 15.1786C193.186 15.0541 192.906 14.8675 192.678 14.6186L193.176 13.7475C193.56 14.1623 194.021 14.3697 194.56 14.3697C194.892 14.3697 195.162 14.2867 195.369 14.1208C195.587 13.9653 195.774 13.7475 195.929 13.4675C196.085 13.1978 196.277 12.7986 196.505 12.2697L193.02 4.10303H194.187L197.08 10.9475L199.974 4.10303H201.078L197.205 13.2497Z" fill="#666666"/>
<path d="M189.129 4.02539C190.155 4.02539 190.938 4.29502 191.477 4.83428C192.027 5.36317 192.302 6.1565 192.302 7.21428V12.2854H191.244V10.8854C191.006 11.3521 190.653 11.715 190.186 11.9743C189.73 12.2335 189.186 12.3632 188.553 12.3632C187.671 12.3632 186.977 12.1454 186.469 11.7098C185.96 11.2743 185.706 10.6987 185.706 9.98317C185.706 9.28835 185.95 8.72835 186.437 8.30317C186.925 7.87798 187.687 7.66539 188.724 7.66539H191.182C191.182 7.35428 191.161 7.08984 191.12 6.87206C191.026 5.62761 190.321 5.00539 189.004 5.00539C188.506 5.00539 188.029 5.09354 187.573 5.26983C187.117 5.44613 186.733 5.68465 186.422 5.98539L185.94 5.16095C186.344 4.79798 186.826 4.51798 187.386 4.32095C187.946 4.12391 188.527 4.02539 189.129 4.02539ZM188.755 11.4765C189.958 11.4765 190.767 10.9269 191.182 9.82761V8.45872H188.802C187.474 8.45872 186.811 8.95132 186.811 9.9365C186.811 10.4135 186.982 10.7921 187.324 11.0721C187.666 11.3417 188.143 11.4765 188.755 11.4765Z" fill="#666666"/>
<path d="M183.81 12.2854H182.737V10.5276C182.436 11.1083 182.021 11.5595 181.492 11.8809C180.974 12.2024 180.383 12.3632 179.719 12.3632C178.993 12.3632 178.34 12.1869 177.759 11.8343C177.178 11.4817 176.717 10.9891 176.374 10.3565C176.043 9.72391 175.877 8.99798 175.877 8.17872C175.877 7.36983 176.043 6.64909 176.374 6.0165C176.717 5.3839 177.178 4.8965 177.759 4.55428C178.34 4.20168 178.993 4.02539 179.719 4.02539C180.372 4.02539 180.958 4.18094 181.477 4.49205C182.006 4.80316 182.415 5.23872 182.706 5.79872V0.743164H183.81V12.2854ZM179.859 11.3365C180.398 11.3365 180.886 11.2069 181.321 10.9476C181.757 10.6883 182.099 10.3202 182.348 9.84316C182.597 9.35576 182.721 8.80094 182.721 8.17872C182.721 7.56687 182.597 7.02242 182.348 6.54539C182.099 6.06835 181.757 5.7002 181.321 5.44094C180.886 5.17131 180.398 5.0365 179.859 5.0365C179.32 5.0365 178.832 5.17131 178.397 5.44094C177.961 5.7002 177.619 6.06835 177.37 6.54539C177.121 7.02242 176.997 7.56687 176.997 8.17872C176.997 8.80094 177.121 9.35576 177.37 9.84316C177.619 10.3202 177.961 10.6883 178.397 10.9476C178.832 11.2069 179.32 11.3365 179.859 11.3365Z" fill="#666666"/>
<path d="M171.652 13.2497C171.341 14.0171 170.973 14.5615 170.548 14.883C170.122 15.2045 169.619 15.3652 169.039 15.3652C168.655 15.3652 168.297 15.303 167.965 15.1786C167.634 15.0541 167.354 14.8675 167.125 14.6186L167.623 13.7475C168.007 14.1623 168.468 14.3697 169.008 14.3697C169.339 14.3697 169.609 14.2867 169.816 14.1208C170.034 13.9653 170.221 13.7475 170.376 13.4675C170.532 13.1978 170.724 12.7986 170.952 12.2697L167.468 4.10303H168.634L171.528 10.9475L174.421 4.10303H175.525L171.652 13.2497Z" fill="#666666"/>
<path d="M163.726 5.72099C163.975 5.16099 164.348 4.73581 164.846 4.44544C165.344 4.15507 165.94 4.01507 166.635 4.02544V5.14544C166.573 5.13507 166.479 5.12988 166.355 5.12988C165.546 5.12988 164.913 5.38914 164.457 5.90766C164.001 6.42618 163.773 7.15729 163.773 8.10099V12.2854H162.653V4.10322H163.726V5.72099Z" fill="#666666"/>
<path d="M160.868 8.48983H154.382C154.433 9.35058 154.734 10.0454 155.284 10.5743C155.844 11.0928 156.549 11.3521 157.399 11.3521C157.887 11.3521 158.333 11.2639 158.737 11.0876C159.152 10.9113 159.494 10.6469 159.764 10.2943L160.402 11.0098C160.039 11.4558 159.598 11.7928 159.079 12.0209C158.561 12.2491 157.996 12.3632 157.384 12.3632C156.585 12.3632 155.87 12.1869 155.237 11.8343C154.615 11.4713 154.127 10.9735 153.775 10.3409C153.433 9.70835 153.262 8.98761 153.262 8.17872C153.262 7.38021 153.427 6.66984 153.759 6.04761C154.091 5.41502 154.547 4.92243 155.128 4.56984C155.719 4.20687 156.373 4.02539 157.088 4.02539C157.804 4.02539 158.447 4.20169 159.017 4.55428C159.598 4.8965 160.054 5.37872 160.386 6.00095C160.718 6.62317 160.884 7.33872 160.884 8.14761L160.868 8.48983ZM157.104 4.97428C156.357 4.97428 155.73 5.22835 155.222 5.7365C154.724 6.23428 154.444 6.88761 154.382 7.6965H159.826C159.753 6.89798 159.463 6.24465 158.955 5.7365C158.457 5.22835 157.84 4.97428 157.104 4.97428Z" fill="#666666"/>
<path d="M149.457 12.2852H148.337L144.868 4.10303H146.035L148.928 10.963L151.821 4.10303H152.926L149.457 12.2852Z" fill="#666666"/>
<path d="M144.386 12.2854H137.044V1.39648H144.184V2.42315H138.195V6.24982H143.53V7.26093H138.195V11.2432H144.386V12.2854Z" fill="#666666"/>
<path d="M131.159 12.379C130.92 12.379 130.713 12.296 130.536 12.1301C130.37 11.9642 130.288 11.7568 130.288 11.5079C130.288 11.259 130.37 11.0568 130.536 10.9012C130.702 10.7353 130.91 10.6523 131.159 10.6523C131.408 10.6523 131.615 10.7353 131.781 10.9012C131.947 11.0568 132.03 11.259 132.03 11.5079C132.03 11.7568 131.942 11.9642 131.765 12.1301C131.599 12.296 131.397 12.379 131.159 12.379Z" fill="#666666"/>
<path d="M128.531 8.52101H127.458V4.88101H125.405V8.39656H124.347V0.929898H125.405V3.80768H127.458V0.867676H128.531V8.52101ZM123.445 7.46323C122.76 7.76397 121.656 7.91434 120.131 7.91434H118.062V1.19434H123.071V2.15879H119.12V4.05656H122.916V5.00545H119.12V6.9499H120.225C121.645 6.9499 122.719 6.79953 123.445 6.49879V7.46323ZM128.531 9.22101V12.7832H127.411V10.2321H118.607V9.22101H128.531Z" fill="#666666"/>
<path d="M110.831 2.81198V3.86976H105.091V2.81198H107.486V0.836426H108.606V2.81198H110.831ZM116.213 12.8142H115.171V0.867537H116.213V12.8142ZM113.6 0.929759V12.612H112.573V9.1742H111.111V8.08532H112.573V5.73643H111.111V4.63198H112.573V0.929759H113.6ZM108.077 4.91198C108.835 4.91198 109.441 5.23346 109.897 5.87643C110.364 6.50902 110.597 7.40087 110.597 8.55198C110.597 9.70309 110.364 10.6001 109.897 11.2431C109.441 11.8861 108.835 12.2075 108.077 12.2075C107.32 12.2075 106.709 11.8861 106.242 11.2431C105.775 10.6001 105.542 9.70309 105.542 8.55198C105.542 7.40087 105.775 6.50902 106.242 5.87643C106.709 5.23346 107.32 4.91198 108.077 4.91198ZM108.077 11.1653C108.523 11.1653 108.881 10.9372 109.151 10.4809C109.431 10.0142 109.571 9.37124 109.571 8.55198C109.571 7.73272 109.431 7.09494 109.151 6.63865C108.881 6.17198 108.523 5.93865 108.077 5.93865C107.632 5.93865 107.269 6.17198 106.989 6.63865C106.719 7.09494 106.584 7.73272 106.584 8.55198C106.584 9.37124 106.719 10.0142 106.989 10.4809C107.269 10.9372 107.632 11.1653 108.077 11.1653Z" fill="#666666"/>
<path d="M100.57 4.42997V5.45663H90.8163V0.883301H91.9363V4.42997H100.57ZM89.9608 7.94552V6.93441H101.285V7.94552H89.9608ZM100.679 11.6166V12.6433H90.7852V9.11219H91.9208V11.6166H100.679Z" fill="#666666"/>
<path d="M87.0535 12.8143V0.867676H88.189V12.8143H87.0535ZM81.5779 1.17879C82.615 1.17879 83.4394 1.64545 84.0513 2.57879C84.6735 3.51212 84.9846 4.88619 84.9846 6.70101C84.9846 8.51582 84.6735 9.8899 84.0513 10.8232C83.4394 11.7566 82.615 12.2232 81.5779 12.2232C80.5409 12.2232 79.7113 11.7566 79.089 10.8232C78.4772 9.8899 78.1713 8.51582 78.1713 6.70101C78.1713 4.88619 78.4772 3.51212 79.089 2.57879C79.7113 1.64545 80.5409 1.17879 81.5779 1.17879ZM81.5779 2.25212C80.8831 2.25212 80.3283 2.62545 79.9135 3.37212C79.4987 4.10842 79.2913 5.21805 79.2913 6.70101C79.2913 8.19434 79.4987 9.30916 79.9135 10.0455C80.3283 10.7818 80.8831 11.1499 81.5779 11.1499C82.252 11.1499 82.8016 10.7818 83.2268 10.0455C83.652 9.29879 83.8646 8.18397 83.8646 6.70101C83.8646 5.22842 83.652 4.11879 83.2268 3.37212C82.8016 2.62545 82.252 2.25212 81.5779 2.25212Z" fill="#666666"/>
<path d="M77.1929 4.18101H75.6063V6.90323H74.5018V0.867676H75.6063V3.09212H77.1929V4.18101ZM67.3307 4.58545C66.7914 5.58101 66.0085 6.21879 64.9818 6.49879V5.4099C65.6455 5.19212 66.1588 4.6736 66.5218 3.85434C66.8848 3.03508 67.0766 2.08101 67.0974 0.99212L68.1551 1.02323C68.1448 1.98768 68.0151 2.85879 67.7663 3.63657L69.0574 5.30101C69.6381 4.9899 70.084 4.44545 70.3951 3.66768C70.7063 2.87953 70.8722 1.98768 70.8929 0.99212L71.9507 1.02323C71.93 1.97731 71.8211 2.77582 71.624 3.41879L73.7551 5.73656L73.0085 6.40545L71.2351 4.39879C70.6855 5.51879 69.8663 6.21879 68.7774 6.49879L67.3307 4.58545ZM76.0107 7.85212V8.75434H65.8374V7.85212H70.364V6.6699H71.484V7.85212H76.0107ZM70.924 9.4699C72.5107 9.4699 73.6774 9.61508 74.424 9.90545C75.1811 10.1855 75.5596 10.6055 75.5596 11.1655C75.5596 11.7255 75.1811 12.1455 74.424 12.4255C73.6774 12.7158 72.5107 12.861 70.924 12.861C69.3374 12.861 68.1707 12.7158 67.424 12.4255C66.6774 12.1455 66.304 11.7255 66.304 11.1655C66.304 10.6055 66.6774 10.1855 67.424 9.90545C68.1707 9.61508 69.3374 9.4699 70.924 9.4699ZM70.924 12.0055C72.0544 12.0055 72.9151 11.938 73.5063 11.8032C74.0974 11.658 74.3929 11.4455 74.3929 11.1655C74.3929 10.8958 74.0922 10.6884 73.4907 10.5432C72.8996 10.3877 72.044 10.3099 70.924 10.3099C69.8144 10.3099 68.9588 10.3877 68.3574 10.5432C67.7663 10.6884 67.4707 10.8958 67.4707 11.1655C67.4707 11.4455 67.7663 11.658 68.3574 11.8032C68.9485 11.938 69.804 12.0055 70.924 12.0055Z" fill="#666666"/>
<path d="M59.3406 6.74768V0.867676H60.4761V6.74768H59.3406ZM53.6784 1.00768C54.3835 1.00768 55.0006 1.12693 55.5295 1.36545C56.0584 1.60397 56.4628 1.93064 56.7428 2.34545C57.0228 2.76027 57.1628 3.23731 57.1628 3.77657C57.1628 4.30545 57.0228 4.78249 56.7428 5.20768C56.4628 5.62249 56.0584 5.94916 55.5295 6.18768C55.0006 6.41582 54.3835 6.5299 53.6784 6.5299C52.9628 6.5299 52.3406 6.41582 51.8117 6.18768C51.2932 5.94916 50.8939 5.62249 50.6139 5.20768C50.3339 4.79286 50.1939 4.31582 50.1939 3.77657C50.1939 3.23731 50.3339 2.76027 50.6139 2.34545C50.8939 1.93064 51.2932 1.60397 51.8117 1.36545C52.3406 1.12693 52.9628 1.00768 53.6784 1.00768ZM53.6784 1.97212C52.9628 1.97212 52.3872 2.13286 51.9517 2.45434C51.5161 2.76545 51.2984 3.20619 51.2984 3.77657C51.2984 4.34694 51.5161 4.78768 51.9517 5.09879C52.3872 5.4099 52.9628 5.56545 53.6784 5.56545C54.3939 5.56545 54.9695 5.4099 55.405 5.09879C55.8406 4.78768 56.0584 4.34694 56.0584 3.77657C56.0584 3.20619 55.8406 2.76545 55.405 2.45434C54.9695 2.13286 54.3939 1.97212 53.6784 1.97212ZM52.2006 10.4655V11.7255H60.7872V12.6277H51.0806V9.62545H59.3561V8.3499H51.0495V7.44768H60.4761V10.4655H52.2006Z" fill="#666666"/>
<path d="M48.4689 12.8143H47.3956V6.88768H45.3422V12.6121H44.2844V0.929898H45.3422V5.76768H47.3956V0.867676H48.4689V12.8143ZM42.8067 1.33434V12.0677H38V1.33434H42.8067ZM41.7333 10.9943V2.40768H39.0578V10.9943H41.7333Z" fill="#666666"/>
<path d="M16.5 20.1152C20.5519 20.1153 24.2619 21.5767 27.1338 24H20.6768V36H23.916V32.7373H26.5635L28.2227 36H31.5537L29.5918 32.0527C30.1712 31.6492 30.6058 31.1228 30.8955 30.4736C31.0731 30.0821 31.1957 29.6746 31.2676 29.252C32.375 31.4687 33 33.9688 33 36.6152C33 45.7278 25.6125 53.115 16.5 53.1152C7.3873 53.1152 0 45.7279 0 36.6152C0 27.5025 7.3873 20.1152 16.5 20.1152ZM9 24V33.1055C9.00002 33.5439 9.07057 33.9383 9.21094 34.2891C9.35138 34.6487 9.54427 34.9517 9.79004 35.1973C10.0446 35.4517 10.3481 35.6487 10.6992 35.7891C11.0591 35.9293 11.4586 36 11.8975 36H19.0215V33.2891H13.0293C12.7924 33.289 12.5994 33.2193 12.4502 33.0791C12.3097 32.93 12.2393 32.7368 12.2393 32.5V31.1973H18.8896V28.5391H12.2393V26.7109H19.0215V24H9ZM26.458 26.6582C26.9583 26.6583 27.3578 26.8161 27.6562 27.1318C27.9545 27.4388 28.1035 27.8509 28.1035 28.3682C28.1035 28.8856 27.9546 29.3024 27.6562 29.6182C27.3578 29.9251 26.9583 30.079 26.458 30.0791H23.916V26.6582H26.458Z" fill="#888888"/>
<defs>
<linearGradient id="paint0_linear_185_1864" x1="38" y1="36.6152" x2="218" y2="36.6152" gradientUnits="userSpaceOnUse">
<stop stop-color="#888888"/>
<stop offset="0.71" stop-color="#666666"/>
</linearGradient>
</defs>
</svg>
